G04 #@! TF.GenerationSoftware,KiCad,Pcbnew,(6.0.1)*
G04 #@! TF.CreationDate,2022-02-17T22:32:39-08:00*
G04 #@! TF.ProjectId,bakeneko-65-pcb,62616b65-6e65-46b6-9f2d-36352d706362,rev?*
G04 #@! TF.SameCoordinates,Original*
G04 #@! TF.FileFunction,Legend,Bot*
G04 #@! TF.FilePolarity,Positive*
%FSLAX46Y46*%
G04 Gerber Fmt 4.6, Leading zero omitted, Abs format (unit mm)*
G04 Created by KiCad (PCBNEW (6.0.1)) date 2022-02-17 22:32:39*
%MOMM*%
%LPD*%
G01*
G04 APERTURE LIST*
G04 Aperture macros list*
%AMRoundRect*
0 Rectangle with rounded corners*
0 $1 Rounding radius*
0 $2 $3 $4 $5 $6 $7 $8 $9 X,Y pos of 4 corners*
0 Add a 4 corners polygon primitive as box body*
4,1,4,$2,$3,$4,$5,$6,$7,$8,$9,$2,$3,0*
0 Add four circle primitives for the rounded corners*
1,1,$1+$1,$2,$3*
1,1,$1+$1,$4,$5*
1,1,$1+$1,$6,$7*
1,1,$1+$1,$8,$9*
0 Add four rect primitives between the rounded corners*
20,1,$1+$1,$2,$3,$4,$5,0*
20,1,$1+$1,$4,$5,$6,$7,0*
20,1,$1+$1,$6,$7,$8,$9,0*
20,1,$1+$1,$8,$9,$2,$3,0*%
%AMFreePoly0*
4,1,59,3.278779,2.028406,3.282808,2.027442,3.282605,2.026594,3.294134,2.026594,3.304789,2.022180,3.316000,2.019497,3.325327,2.012730,3.325660,2.013535,3.329487,2.011950,3.337641,2.003796,3.346976,1.997024,3.349143,1.993493,3.348401,1.993038,3.356548,1.984891,3.360961,1.974239,3.366993,1.964410,3.368805,1.953025,3.369610,1.953359,3.371195,1.949532,3.375000,1.930400,
3.375000,-1.930400,3.371195,-1.949532,3.369610,-1.953359,3.368805,-1.953025,3.366993,-1.964410,3.360961,-1.974239,3.356548,-1.984891,3.348401,-1.993038,3.349143,-1.993493,3.346976,-1.997024,3.337641,-2.003796,3.329487,-2.011950,3.325660,-2.013535,3.325327,-2.012730,3.316000,-2.019497,3.304789,-2.022180,3.294134,-2.026594,3.282605,-2.026594,3.282808,-2.027442,3.278779,-2.028406,
3.259288,-2.029158,-1.211112,-1.317958,-1.229410,-1.311193,-1.239239,-1.305161,-1.249891,-1.300748,-1.250639,-1.300000,-1.275000,-1.300000,-1.310355,-1.285355,-1.325000,-1.250000,-1.325000,1.250000,-1.310355,1.285355,-1.275000,1.300000,-1.250639,1.300000,-1.249891,1.300748,-1.239239,1.305161,-1.229410,1.311193,-1.211112,1.317958,3.259288,2.029158,3.278779,2.028406,3.278779,2.028406,
$1*%
%AMFreePoly1*
4,1,59,1.234912,1.317958,1.253212,1.311192,1.263038,1.305161,1.273689,1.300749,1.274438,1.300000,1.275000,1.300000,1.310355,1.285355,1.325000,1.250000,1.325000,-1.250000,1.310355,-1.285355,1.275000,-1.300000,1.274438,-1.300000,1.273689,-1.300749,1.263038,-1.305161,1.253212,-1.311192,1.234912,-1.317958,-3.235488,-2.029158,-3.254979,-2.028406,-3.259008,-2.027442,-3.258805,-2.026594,
-3.270334,-2.026594,-3.280989,-2.022180,-3.292200,-2.019497,-3.301527,-2.012730,-3.301860,-2.013535,-3.305687,-2.011950,-3.313841,-2.003796,-3.323176,-1.997024,-3.325343,-1.993493,-3.324601,-1.993038,-3.332748,-1.984891,-3.337161,-1.974239,-3.343193,-1.964410,-3.345005,-1.953025,-3.345810,-1.953359,-3.347395,-1.949532,-3.351200,-1.930400,-3.351200,1.930400,-3.347395,1.949532,-3.345810,1.953359,
-3.345005,1.953025,-3.343193,1.964410,-3.337161,1.974239,-3.332748,1.984891,-3.324601,1.993038,-3.325343,1.993493,-3.323176,1.997024,-3.313841,2.003796,-3.305687,2.011950,-3.301860,2.013535,-3.301527,2.012730,-3.292200,2.019497,-3.280989,2.022180,-3.270334,2.026594,-3.258805,2.026594,-3.259008,2.027442,-3.254979,2.028406,-3.235488,2.029158,1.234912,1.317958,1.234912,1.317958,
$1*%
G04 Aperture macros list end*
%ADD10C,0.150000*%
%ADD11C,0.120000*%
%ADD12RoundRect,0.300000X-0.375000X-0.625000X0.375000X-0.625000X0.375000X0.625000X-0.375000X0.625000X0*%
%ADD13RoundRect,0.200000X-0.625000X0.150000X-0.625000X-0.150000X0.625000X-0.150000X0.625000X0.150000X0*%
%ADD14RoundRect,0.300000X-0.650000X0.350000X-0.650000X-0.350000X0.650000X-0.350000X0.650000X0.350000X0*%
%ADD15O,1.800000X1.800000*%
%ADD16RoundRect,0.050000X0.850000X0.850000X-0.850000X0.850000X-0.850000X-0.850000X0.850000X-0.850000X0*%
%ADD17RoundRect,0.293750X-0.243750X-0.456250X0.243750X-0.456250X0.243750X0.456250X-0.243750X0.456250X0*%
%ADD18RoundRect,0.050000X-0.850000X-0.500000X0.850000X-0.500000X0.850000X0.500000X-0.850000X0.500000X0*%
%ADD19RoundRect,0.293750X0.243750X0.456250X-0.243750X0.456250X-0.243750X-0.456250X0.243750X-0.456250X0*%
%ADD20RoundRect,0.293750X0.456250X-0.243750X0.456250X0.243750X-0.456250X0.243750X-0.456250X-0.243750X0*%
%ADD21RoundRect,0.112500X-0.062500X0.475000X-0.062500X-0.475000X0.062500X-0.475000X0.062500X0.475000X0*%
%ADD22RoundRect,0.112500X-0.475000X0.062500X-0.475000X-0.062500X0.475000X-0.062500X0.475000X0.062500X0*%
%ADD23RoundRect,0.050000X-2.600000X2.600000X-2.600000X-2.600000X2.600000X-2.600000X2.600000X2.600000X0*%
%ADD24RoundRect,0.050000X0.700000X0.600000X-0.700000X0.600000X-0.700000X-0.600000X0.700000X-0.600000X0*%
%ADD25RoundRect,0.293750X-0.456250X0.243750X-0.456250X-0.243750X0.456250X-0.243750X0.456250X0.243750X0*%
%ADD26RoundRect,0.050000X0.600000X-0.450000X0.600000X0.450000X-0.600000X0.450000X-0.600000X-0.450000X0*%
%ADD27C,1.850000*%
%ADD28C,4.087800*%
%ADD29C,4.100000*%
%ADD30FreePoly0,0.000000*%
%ADD31FreePoly1,0.000000*%
%ADD32FreePoly0,180.000000*%
%ADD33FreePoly1,180.000000*%
%ADD34C,3.148000*%
%ADD35RoundRect,0.050000X0.325000X-0.530000X0.325000X0.530000X-0.325000X0.530000X-0.325000X-0.530000X0*%
G04 APERTURE END LIST*
D10*
X299822619Y-91836072D02*
X299679762Y-91883691D01*
X299632143Y-91931310D01*
X299584524Y-92026548D01*
X299584524Y-92169405D01*
X299632143Y-92264643D01*
X299679762Y-92312262D01*
X299775000Y-92359881D01*
X300155953Y-92359881D01*
X300155953Y-91359881D01*
X299822619Y-91359881D01*
X299727381Y-91407501D01*
X299679762Y-91455120D01*
X299632143Y-91550358D01*
X299632143Y-91645596D01*
X299679762Y-91740834D01*
X299727381Y-91788453D01*
X299822619Y-91836072D01*
X300155953Y-91836072D01*
X298727381Y-92359881D02*
X298727381Y-91836072D01*
X298775000Y-91740834D01*
X298870238Y-91693215D01*
X299060715Y-91693215D01*
X299155953Y-91740834D01*
X298727381Y-92312262D02*
X298822619Y-92359881D01*
X299060715Y-92359881D01*
X299155953Y-92312262D01*
X299203572Y-92217024D01*
X299203572Y-92121786D01*
X299155953Y-92026548D01*
X299060715Y-91978929D01*
X298822619Y-91978929D01*
X298727381Y-91931310D01*
X298251191Y-92359881D02*
X298251191Y-91359881D01*
X298155953Y-91978929D02*
X297870238Y-92359881D01*
X297870238Y-91693215D02*
X298251191Y-92074167D01*
X297060715Y-92312262D02*
X297155953Y-92359881D01*
X297346429Y-92359881D01*
X297441667Y-92312262D01*
X297489286Y-92217024D01*
X297489286Y-91836072D01*
X297441667Y-91740834D01*
X297346429Y-91693215D01*
X297155953Y-91693215D01*
X297060715Y-91740834D01*
X297013096Y-91836072D01*
X297013096Y-91931310D01*
X297489286Y-92026548D01*
X296584524Y-91693215D02*
X296584524Y-92359881D01*
X296584524Y-91788453D02*
X296536905Y-91740834D01*
X296441667Y-91693215D01*
X296298810Y-91693215D01*
X296203572Y-91740834D01*
X296155953Y-91836072D01*
X296155953Y-92359881D01*
X295298810Y-92312262D02*
X295394048Y-92359881D01*
X295584524Y-92359881D01*
X295679762Y-92312262D01*
X295727381Y-92217024D01*
X295727381Y-91836072D01*
X295679762Y-91740834D01*
X295584524Y-91693215D01*
X295394048Y-91693215D01*
X295298810Y-91740834D01*
X295251191Y-91836072D01*
X295251191Y-91931310D01*
X295727381Y-92026548D01*
X294822619Y-92359881D02*
X294822619Y-91359881D01*
X294727381Y-91978929D02*
X294441667Y-92359881D01*
X294441667Y-91693215D02*
X294822619Y-92074167D01*
X293870238Y-92359881D02*
X293965477Y-92312262D01*
X294013096Y-92264643D01*
X294060715Y-92169405D01*
X294060715Y-91883691D01*
X294013096Y-91788453D01*
X293965477Y-91740834D01*
X293870238Y-91693215D01*
X293727381Y-91693215D01*
X293632143Y-91740834D01*
X293584524Y-91788453D01*
X293536905Y-91883691D01*
X293536905Y-92169405D01*
X293584524Y-92264643D01*
X293632143Y-92312262D01*
X293727381Y-92359881D01*
X293870238Y-92359881D01*
X292679762Y-91359881D02*
X292870238Y-91359881D01*
X292965477Y-91407501D01*
X293013096Y-91455120D01*
X293108334Y-91597977D01*
X293155953Y-91788453D01*
X293155953Y-92169405D01*
X293108334Y-92264643D01*
X293060715Y-92312262D01*
X292965477Y-92359881D01*
X292775000Y-92359881D01*
X292679762Y-92312262D01*
X292632143Y-92264643D01*
X292584524Y-92169405D01*
X292584524Y-91931310D01*
X292632143Y-91836072D01*
X292679762Y-91788453D01*
X292775000Y-91740834D01*
X292965477Y-91740834D01*
X293060715Y-91788453D01*
X293108334Y-91836072D01*
X293155953Y-91931310D01*
X291679762Y-91359881D02*
X292155953Y-91359881D01*
X292203572Y-91836072D01*
X292155953Y-91788453D01*
X292060715Y-91740834D01*
X291822619Y-91740834D01*
X291727381Y-91788453D01*
X291679762Y-91836072D01*
X291632143Y-91931310D01*
X291632143Y-92169405D01*
X291679762Y-92264643D01*
X291727381Y-92312262D01*
X291822619Y-92359881D01*
X292060715Y-92359881D01*
X292155953Y-92312262D01*
X292203572Y-92264643D01*
X290536905Y-91693215D02*
X290298810Y-92359881D01*
X290060715Y-91693215D01*
X289775000Y-91359881D02*
X289155953Y-91359881D01*
X289489286Y-91740834D01*
X289346429Y-91740834D01*
X289251191Y-91788453D01*
X289203572Y-91836072D01*
X289155953Y-91931310D01*
X289155953Y-92169405D01*
X289203572Y-92264643D01*
X289251191Y-92312262D01*
X289346429Y-92359881D01*
X289632143Y-92359881D01*
X289727381Y-92312262D01*
X289775000Y-92264643D01*
X288727381Y-92264643D02*
X288679762Y-92312262D01*
X288727381Y-92359881D01*
X288775000Y-92312262D01*
X288727381Y-92264643D01*
X288727381Y-92359881D01*
X288060715Y-91359881D02*
X287965477Y-91359881D01*
X287870238Y-91407501D01*
X287822619Y-91455120D01*
X287775000Y-91550358D01*
X287727381Y-91740834D01*
X287727381Y-91978929D01*
X287775000Y-92169405D01*
X287822619Y-92264643D01*
X287870238Y-92312262D01*
X287965477Y-92359881D01*
X288060715Y-92359881D01*
X288155953Y-92312262D01*
X288203572Y-92264643D01*
X288251191Y-92169405D01*
X288298810Y-91978929D01*
X288298810Y-91740834D01*
X288251191Y-91550358D01*
X288203572Y-91455120D01*
X288155953Y-91407501D01*
X288060715Y-91359881D01*
X25043333Y-18868571D02*
X25376666Y-18868571D01*
X25376666Y-19392380D02*
X25376666Y-18392380D01*
X24900476Y-18392380D01*
X23995714Y-19392380D02*
X24567142Y-19392380D01*
X24281428Y-19392380D02*
X24281428Y-18392380D01*
X24376666Y-18535238D01*
X24471904Y-18630476D01*
X24567142Y-18678095D01*
X61522380Y-17170416D02*
X62236666Y-17170416D01*
X62379523Y-17122797D01*
X62474761Y-17027559D01*
X62522380Y-16884702D01*
X62522380Y-16789464D01*
X62522380Y-18170416D02*
X62522380Y-17598988D01*
X62522380Y-17884702D02*
X61522380Y-17884702D01*
X61665238Y-17789464D01*
X61760476Y-17694226D01*
X61808095Y-17598988D01*
X1239285Y-16704642D02*
X882142Y-16454642D01*
X1239285Y-16276071D02*
X489285Y-16276071D01*
X489285Y-16561785D01*
X525000Y-16633214D01*
X560714Y-16668928D01*
X632142Y-16704642D01*
X739285Y-16704642D01*
X810714Y-16668928D01*
X846428Y-16633214D01*
X882142Y-16561785D01*
X882142Y-16276071D01*
X1203571Y-16990357D02*
X1239285Y-17097500D01*
X1239285Y-17276071D01*
X1203571Y-17347500D01*
X1167857Y-17383214D01*
X1096428Y-17418928D01*
X1024999Y-17418928D01*
X953571Y-17383214D01*
X917857Y-17347500D01*
X882142Y-17276071D01*
X846428Y-17133214D01*
X810714Y-17061785D01*
X775000Y-17026071D01*
X703571Y-16990357D01*
X632142Y-16990357D01*
X560714Y-17026071D01*
X525000Y-17061785D01*
X489285Y-17133214D01*
X489285Y-17311785D01*
X525000Y-17418928D01*
X489285Y-17633214D02*
X489285Y-18061785D01*
X1239285Y-17847500D02*
X489285Y-17847500D01*
X7039285Y-18466785D02*
X6289285Y-18466785D01*
X6825000Y-18716785D01*
X6289285Y-18966785D01*
X7039285Y-18966785D01*
X6289285Y-19466785D02*
X6289285Y-19609642D01*
X6325000Y-19681071D01*
X6396428Y-19752500D01*
X6539285Y-19788214D01*
X6789285Y-19788214D01*
X6932142Y-19752500D01*
X7003571Y-19681071D01*
X7039285Y-19609642D01*
X7039285Y-19466785D01*
X7003571Y-19395357D01*
X6932142Y-19323928D01*
X6789285Y-19288214D01*
X6539285Y-19288214D01*
X6396428Y-19323928D01*
X6325000Y-19395357D01*
X6289285Y-19466785D01*
X7003571Y-20073928D02*
X7039285Y-20181071D01*
X7039285Y-20359642D01*
X7003571Y-20431071D01*
X6967857Y-20466785D01*
X6896428Y-20502500D01*
X6825000Y-20502500D01*
X6753571Y-20466785D01*
X6717857Y-20431071D01*
X6682142Y-20359642D01*
X6646428Y-20216785D01*
X6610714Y-20145357D01*
X6575000Y-20109642D01*
X6503571Y-20073928D01*
X6432142Y-20073928D01*
X6360714Y-20109642D01*
X6325000Y-20145357D01*
X6289285Y-20216785D01*
X6289285Y-20395357D01*
X6325000Y-20502500D01*
X7039285Y-20823928D02*
X6289285Y-20823928D01*
X6325000Y-16488214D02*
X6289285Y-16416785D01*
X6289285Y-16309642D01*
X6325000Y-16202500D01*
X6396428Y-16131071D01*
X6467857Y-16095357D01*
X6610714Y-16059642D01*
X6717857Y-16059642D01*
X6860714Y-16095357D01*
X6932142Y-16131071D01*
X7003571Y-16202500D01*
X7039285Y-16309642D01*
X7039285Y-16381071D01*
X7003571Y-16488214D01*
X6967857Y-16523928D01*
X6717857Y-16523928D01*
X6717857Y-16381071D01*
X7039285Y-16845357D02*
X6289285Y-16845357D01*
X7039285Y-17273928D01*
X6289285Y-17273928D01*
X7039285Y-17631071D02*
X6289285Y-17631071D01*
X6289285Y-17809642D01*
X6325000Y-17916785D01*
X6396428Y-17988214D01*
X6467857Y-18023928D01*
X6610714Y-18059642D01*
X6717857Y-18059642D01*
X6860714Y-18023928D01*
X6932142Y-17988214D01*
X7003571Y-17916785D01*
X7039285Y-17809642D01*
X7039285Y-17631071D01*
X1239285Y-21376071D02*
X489285Y-21376071D01*
X1025000Y-21626071D01*
X489285Y-21876071D01*
X1239285Y-21876071D01*
X1239285Y-22233214D02*
X489285Y-22233214D01*
X1203571Y-22554642D02*
X1239285Y-22661785D01*
X1239285Y-22840357D01*
X1203571Y-22911785D01*
X1167857Y-22947500D01*
X1096428Y-22983214D01*
X1024999Y-22983214D01*
X953571Y-22947500D01*
X917857Y-22911785D01*
X882142Y-22840357D01*
X846428Y-22697500D01*
X810714Y-22626071D01*
X774999Y-22590357D01*
X703571Y-22554642D01*
X632142Y-22554642D01*
X560714Y-22590357D01*
X524999Y-22626071D01*
X489285Y-22697500D01*
X489285Y-22876071D01*
X524999Y-22983214D01*
X489285Y-23447500D02*
X489285Y-23590357D01*
X524999Y-23661785D01*
X596428Y-23733214D01*
X739285Y-23768928D01*
X989285Y-23768928D01*
X1132142Y-23733214D01*
X1203571Y-23661785D01*
X1239285Y-23590357D01*
X1239285Y-23447500D01*
X1203571Y-23376071D01*
X1132142Y-23304642D01*
X989285Y-23268928D01*
X739285Y-23268928D01*
X596428Y-23304642D01*
X524999Y-23376071D01*
X489285Y-23447500D01*
X1203571Y-18740357D02*
X1239285Y-18847500D01*
X1239285Y-19026071D01*
X1203571Y-19097500D01*
X1167857Y-19133214D01*
X1096428Y-19168928D01*
X1025000Y-19168928D01*
X953571Y-19133214D01*
X917857Y-19097500D01*
X882142Y-19026071D01*
X846428Y-18883214D01*
X810714Y-18811785D01*
X775000Y-18776071D01*
X703571Y-18740357D01*
X632142Y-18740357D01*
X560714Y-18776071D01*
X525000Y-18811785D01*
X489285Y-18883214D01*
X489285Y-19061785D01*
X525000Y-19168928D01*
X1167857Y-19918928D02*
X1203571Y-19883214D01*
X1239285Y-19776071D01*
X1239285Y-19704642D01*
X1203571Y-19597500D01*
X1132142Y-19526071D01*
X1060714Y-19490357D01*
X917857Y-19454642D01*
X810714Y-19454642D01*
X667857Y-19490357D01*
X596428Y-19526071D01*
X525000Y-19597500D01*
X489285Y-19704642D01*
X489285Y-19776071D01*
X525000Y-19883214D01*
X560714Y-19918928D01*
X1239285Y-20240357D02*
X489285Y-20240357D01*
X1239285Y-20668928D02*
X810714Y-20347500D01*
X489285Y-20668928D02*
X917857Y-20240357D01*
X6289285Y-21331071D02*
X7039285Y-21581071D01*
X6289285Y-21831071D01*
X6967857Y-22509642D02*
X7003571Y-22473928D01*
X7039285Y-22366785D01*
X7039285Y-22295357D01*
X7003571Y-22188214D01*
X6932142Y-22116785D01*
X6860714Y-22081071D01*
X6717857Y-22045357D01*
X6610714Y-22045357D01*
X6467857Y-22081071D01*
X6396428Y-22116785D01*
X6325000Y-22188214D01*
X6289285Y-22295357D01*
X6289285Y-22366785D01*
X6325000Y-22473928D01*
X6360714Y-22509642D01*
X6967857Y-23259642D02*
X7003571Y-23223928D01*
X7039285Y-23116785D01*
X7039285Y-23045357D01*
X7003571Y-22938214D01*
X6932142Y-22866785D01*
X6860714Y-22831071D01*
X6717857Y-22795357D01*
X6610714Y-22795357D01*
X6467857Y-22831071D01*
X6396428Y-22866785D01*
X6325000Y-22938214D01*
X6289285Y-23045357D01*
X6289285Y-23116785D01*
X6325000Y-23223928D01*
X6360714Y-23259642D01*
X32506666Y-20856130D02*
X32840000Y-20379940D01*
X33078095Y-20856130D02*
X33078095Y-19856130D01*
X32697142Y-19856130D01*
X32601904Y-19903750D01*
X32554285Y-19951369D01*
X32506666Y-20046607D01*
X32506666Y-20189464D01*
X32554285Y-20284702D01*
X32601904Y-20332321D01*
X32697142Y-20379940D01*
X33078095Y-20379940D01*
X32125714Y-19951369D02*
X32078095Y-19903750D01*
X31982857Y-19856130D01*
X31744761Y-19856130D01*
X31649523Y-19903750D01*
X31601904Y-19951369D01*
X31554285Y-20046607D01*
X31554285Y-20141845D01*
X31601904Y-20284702D01*
X32173333Y-20856130D01*
X31554285Y-20856130D01*
X32556666Y-15122380D02*
X32890000Y-14646190D01*
X33128095Y-15122380D02*
X33128095Y-14122380D01*
X32747142Y-14122380D01*
X32651904Y-14170000D01*
X32604285Y-14217619D01*
X32556666Y-14312857D01*
X32556666Y-14455714D01*
X32604285Y-14550952D01*
X32651904Y-14598571D01*
X32747142Y-14646190D01*
X33128095Y-14646190D01*
X32223333Y-14122380D02*
X31604285Y-14122380D01*
X31937619Y-14503333D01*
X31794761Y-14503333D01*
X31699523Y-14550952D01*
X31651904Y-14598571D01*
X31604285Y-14693809D01*
X31604285Y-14931904D01*
X31651904Y-15027142D01*
X31699523Y-15074761D01*
X31794761Y-15122380D01*
X32080476Y-15122380D01*
X32175714Y-15074761D01*
X32223333Y-15027142D01*
X56577083Y-39639761D02*
X56434226Y-39687380D01*
X56196130Y-39687380D01*
X56100892Y-39639761D01*
X56053273Y-39592142D01*
X56005654Y-39496904D01*
X56005654Y-39401666D01*
X56053273Y-39306428D01*
X56100892Y-39258809D01*
X56196130Y-39211190D01*
X56386607Y-39163571D01*
X56481845Y-39115952D01*
X56529464Y-39068333D01*
X56577083Y-38973095D01*
X56577083Y-38877857D01*
X56529464Y-38782619D01*
X56481845Y-38735000D01*
X56386607Y-38687380D01*
X56148511Y-38687380D01*
X56005654Y-38735000D01*
X55672321Y-38687380D02*
X55434226Y-39687380D01*
X55243750Y-38973095D01*
X55053273Y-39687380D01*
X54815178Y-38687380D01*
X53910416Y-39687380D02*
X54481845Y-39687380D01*
X54196130Y-39687380D02*
X54196130Y-38687380D01*
X54291369Y-38830238D01*
X54386607Y-38925476D01*
X54481845Y-38973095D01*
X43902916Y-35188392D02*
X43950535Y-35236011D01*
X44093392Y-35283630D01*
X44188630Y-35283630D01*
X44331488Y-35236011D01*
X44426726Y-35140773D01*
X44474345Y-35045535D01*
X44521964Y-34855059D01*
X44521964Y-34712202D01*
X44474345Y-34521726D01*
X44426726Y-34426488D01*
X44331488Y-34331250D01*
X44188630Y-34283630D01*
X44093392Y-34283630D01*
X43950535Y-34331250D01*
X43902916Y-34378869D01*
X42998154Y-34283630D02*
X43474345Y-34283630D01*
X43521964Y-34759821D01*
X43474345Y-34712202D01*
X43379107Y-34664583D01*
X43141011Y-34664583D01*
X43045773Y-34712202D01*
X42998154Y-34759821D01*
X42950535Y-34855059D01*
X42950535Y-35093154D01*
X42998154Y-35188392D01*
X43045773Y-35236011D01*
X43141011Y-35283630D01*
X43379107Y-35283630D01*
X43474345Y-35236011D01*
X43521964Y-35188392D01*
X23290416Y-27457142D02*
X23338035Y-27504761D01*
X23480892Y-27552380D01*
X23576130Y-27552380D01*
X23718988Y-27504761D01*
X23814226Y-27409523D01*
X23861845Y-27314285D01*
X23909464Y-27123809D01*
X23909464Y-26980952D01*
X23861845Y-26790476D01*
X23814226Y-26695238D01*
X23718988Y-26600000D01*
X23576130Y-26552380D01*
X23480892Y-26552380D01*
X23338035Y-26600000D01*
X23290416Y-26647619D01*
X22433273Y-26885714D02*
X22433273Y-27552380D01*
X22671369Y-26504761D02*
X22909464Y-27219047D01*
X22290416Y-27219047D01*
X33707142Y-43833333D02*
X33754761Y-43785714D01*
X33802380Y-43642857D01*
X33802380Y-43547619D01*
X33754761Y-43404761D01*
X33659523Y-43309523D01*
X33564285Y-43261904D01*
X33373809Y-43214285D01*
X33230952Y-43214285D01*
X33040476Y-43261904D01*
X32945238Y-43309523D01*
X32850000Y-43404761D01*
X32802380Y-43547619D01*
X32802380Y-43642857D01*
X32850000Y-43785714D01*
X32897619Y-43833333D01*
X32802380Y-44166666D02*
X32802380Y-44785714D01*
X33183333Y-44452380D01*
X33183333Y-44595238D01*
X33230952Y-44690476D01*
X33278571Y-44738095D01*
X33373809Y-44785714D01*
X33611904Y-44785714D01*
X33707142Y-44738095D01*
X33754761Y-44690476D01*
X33802380Y-44595238D01*
X33802380Y-44309523D01*
X33754761Y-44214285D01*
X33707142Y-44166666D01*
X23186130Y-36996845D02*
X23995654Y-36996845D01*
X24090892Y-37044464D01*
X24138511Y-37092083D01*
X24186130Y-37187321D01*
X24186130Y-37377797D01*
X24138511Y-37473035D01*
X24090892Y-37520654D01*
X23995654Y-37568273D01*
X23186130Y-37568273D01*
X23281369Y-37996845D02*
X23233750Y-38044464D01*
X23186130Y-38139702D01*
X23186130Y-38377797D01*
X23233750Y-38473035D01*
X23281369Y-38520654D01*
X23376607Y-38568273D01*
X23471845Y-38568273D01*
X23614702Y-38520654D01*
X24186130Y-37949226D01*
X24186130Y-38568273D01*
X44097440Y-37157559D02*
X44573630Y-37157559D01*
X43573630Y-36824226D02*
X44097440Y-37157559D01*
X43573630Y-37490892D01*
X44573630Y-38348035D02*
X44573630Y-37776607D01*
X44573630Y-38062321D02*
X43573630Y-38062321D01*
X43716488Y-37967083D01*
X43811726Y-37871845D01*
X43859345Y-37776607D01*
X35495892Y-31319583D02*
X35543511Y-31271964D01*
X35591130Y-31129107D01*
X35591130Y-31033869D01*
X35543511Y-30891011D01*
X35448273Y-30795773D01*
X35353035Y-30748154D01*
X35162559Y-30700535D01*
X35019702Y-30700535D01*
X34829226Y-30748154D01*
X34733988Y-30795773D01*
X34638750Y-30891011D01*
X34591130Y-31033869D01*
X34591130Y-31129107D01*
X34638750Y-31271964D01*
X34686369Y-31319583D01*
X35591130Y-32271964D02*
X35591130Y-31700535D01*
X35591130Y-31986250D02*
X34591130Y-31986250D01*
X34733988Y-31891011D01*
X34829226Y-31795773D01*
X34876845Y-31700535D01*
X50173630Y-31677083D02*
X49697440Y-31343750D01*
X50173630Y-31105654D02*
X49173630Y-31105654D01*
X49173630Y-31486607D01*
X49221250Y-31581845D01*
X49268869Y-31629464D01*
X49364107Y-31677083D01*
X49506964Y-31677083D01*
X49602202Y-31629464D01*
X49649821Y-31581845D01*
X49697440Y-31486607D01*
X49697440Y-31105654D01*
X50173630Y-32629464D02*
X50173630Y-32058035D01*
X50173630Y-32343750D02*
X49173630Y-32343750D01*
X49316488Y-32248511D01*
X49411726Y-32153273D01*
X49459345Y-32058035D01*
X27207142Y-29433333D02*
X27254761Y-29385714D01*
X27302380Y-29242857D01*
X27302380Y-29147619D01*
X27254761Y-29004761D01*
X27159523Y-28909523D01*
X27064285Y-28861904D01*
X26873809Y-28814285D01*
X26730952Y-28814285D01*
X26540476Y-28861904D01*
X26445238Y-28909523D01*
X26350000Y-29004761D01*
X26302380Y-29147619D01*
X26302380Y-29242857D01*
X26350000Y-29385714D01*
X26397619Y-29433333D01*
X26302380Y-29766666D02*
X26302380Y-30433333D01*
X27302380Y-30004761D01*
X43902916Y-40788392D02*
X43950535Y-40836011D01*
X44093392Y-40883630D01*
X44188630Y-40883630D01*
X44331488Y-40836011D01*
X44426726Y-40740773D01*
X44474345Y-40645535D01*
X44521964Y-40455059D01*
X44521964Y-40312202D01*
X44474345Y-40121726D01*
X44426726Y-40026488D01*
X44331488Y-39931250D01*
X44188630Y-39883630D01*
X44093392Y-39883630D01*
X43950535Y-39931250D01*
X43902916Y-39978869D01*
X43045773Y-39883630D02*
X43236250Y-39883630D01*
X43331488Y-39931250D01*
X43379107Y-39978869D01*
X43474345Y-40121726D01*
X43521964Y-40312202D01*
X43521964Y-40693154D01*
X43474345Y-40788392D01*
X43426726Y-40836011D01*
X43331488Y-40883630D01*
X43141011Y-40883630D01*
X43045773Y-40836011D01*
X42998154Y-40788392D01*
X42950535Y-40693154D01*
X42950535Y-40455059D01*
X42998154Y-40359821D01*
X43045773Y-40312202D01*
X43141011Y-40264583D01*
X43331488Y-40264583D01*
X43426726Y-40312202D01*
X43474345Y-40359821D01*
X43521964Y-40455059D01*
X26952380Y-43183333D02*
X26476190Y-42850000D01*
X26952380Y-42611904D02*
X25952380Y-42611904D01*
X25952380Y-42992857D01*
X26000000Y-43088095D01*
X26047619Y-43135714D01*
X26142857Y-43183333D01*
X26285714Y-43183333D01*
X26380952Y-43135714D01*
X26428571Y-43088095D01*
X26476190Y-42992857D01*
X26476190Y-42611904D01*
X26285714Y-44040476D02*
X26952380Y-44040476D01*
X25904761Y-43802380D02*
X26619047Y-43564285D01*
X26619047Y-44183333D01*
X22216666Y-42557142D02*
X22264285Y-42604761D01*
X22407142Y-42652380D01*
X22502380Y-42652380D01*
X22645238Y-42604761D01*
X22740476Y-42509523D01*
X22788095Y-42414285D01*
X22835714Y-42223809D01*
X22835714Y-42080952D01*
X22788095Y-41890476D01*
X22740476Y-41795238D01*
X22645238Y-41700000D01*
X22502380Y-41652380D01*
X22407142Y-41652380D01*
X22264285Y-41700000D01*
X22216666Y-41747619D01*
X21835714Y-41747619D02*
X21788095Y-41700000D01*
X21692857Y-41652380D01*
X21454761Y-41652380D01*
X21359523Y-41700000D01*
X21311904Y-41747619D01*
X21264285Y-41842857D01*
X21264285Y-41938095D01*
X21311904Y-42080952D01*
X21883333Y-42652380D01*
X21264285Y-42652380D01*
X40576130Y-16741845D02*
X41385654Y-16741845D01*
X41480892Y-16789464D01*
X41528511Y-16837083D01*
X41576130Y-16932321D01*
X41576130Y-17122797D01*
X41528511Y-17218035D01*
X41480892Y-17265654D01*
X41385654Y-17313273D01*
X40576130Y-17313273D01*
X41576130Y-18313273D02*
X41576130Y-17741845D01*
X41576130Y-18027559D02*
X40576130Y-18027559D01*
X40718988Y-17932321D01*
X40814226Y-17837083D01*
X40861845Y-17741845D01*
D11*
X24107936Y-18030000D02*
X25312064Y-18030000D01*
X24107936Y-16210000D02*
X25312064Y-16210000D01*
X64265000Y-15443750D02*
X63275000Y-15443750D01*
X68735000Y-15563750D02*
X68735000Y-19443750D01*
X64265000Y-20613750D02*
X64265000Y-19563750D01*
X64265000Y-14393750D02*
X64265000Y-15443750D01*
X66765000Y-14393750D02*
X64265000Y-14393750D01*
X66765000Y-20613750D02*
X64265000Y-20613750D01*
X32081422Y-18043750D02*
X32598578Y-18043750D01*
X32081422Y-19463750D02*
X32598578Y-19463750D01*
X32081422Y-16963750D02*
X32598578Y-16963750D01*
X32081422Y-15543750D02*
X32598578Y-15543750D01*
X53543750Y-37785000D02*
X53993750Y-38235000D01*
X53993750Y-38235000D02*
X56493750Y-38235000D01*
X57993750Y-36485000D02*
X57993750Y-34485000D01*
X56943750Y-33185000D02*
X56493750Y-32735000D01*
X53543750Y-33185000D02*
X53993750Y-32735000D01*
X53993750Y-32735000D02*
X56493750Y-32735000D01*
X56943750Y-37785000D02*
X56493750Y-38235000D01*
X52493750Y-36485000D02*
X52493750Y-34485000D01*
X41218578Y-34160000D02*
X40701422Y-34160000D01*
X41218578Y-35580000D02*
X40701422Y-35580000D01*
X23382328Y-28040000D02*
X22865172Y-28040000D01*
X23382328Y-29460000D02*
X22865172Y-29460000D01*
X32410000Y-44258578D02*
X32410000Y-43741422D01*
X30990000Y-44258578D02*
X30990000Y-43741422D01*
X24943750Y-34873750D02*
X24943750Y-34148750D01*
X32163750Y-40643750D02*
X32163750Y-41368750D01*
X32163750Y-41368750D02*
X31438750Y-41368750D01*
X32163750Y-34148750D02*
X31438750Y-34148750D01*
X32163750Y-34873750D02*
X32163750Y-34148750D01*
X24943750Y-40643750D02*
X24943750Y-41368750D01*
X24943750Y-41368750D02*
X25668750Y-41368750D01*
X42960000Y-39320000D02*
X38960000Y-39320000D01*
X42960000Y-36020000D02*
X42960000Y-39320000D01*
X34440000Y-33991422D02*
X34440000Y-34508578D01*
X35860000Y-33991422D02*
X35860000Y-34508578D01*
X50420000Y-34261422D02*
X50420000Y-34778578D01*
X49000000Y-34261422D02*
X49000000Y-34778578D01*
X3381250Y-14950000D02*
X1381250Y-14950000D01*
X3381250Y-14950000D02*
X3381250Y-11050000D01*
X1381250Y-14950000D02*
X1381250Y-11050000D01*
X18462500Y-12050000D02*
X16462500Y-12050000D01*
X16462500Y-12050000D02*
X16462500Y-8150000D01*
X18462500Y-12050000D02*
X18462500Y-8150000D01*
X37512500Y-12043750D02*
X37512500Y-8143750D01*
X35512500Y-12043750D02*
X35512500Y-8143750D01*
X37512500Y-12043750D02*
X35512500Y-12043750D01*
X56562500Y-12043750D02*
X54562500Y-12043750D01*
X56562500Y-12043750D02*
X56562500Y-8143750D01*
X54562500Y-12043750D02*
X54562500Y-8143750D01*
X75612500Y-12043750D02*
X73612500Y-12043750D01*
X75612500Y-12043750D02*
X75612500Y-8143750D01*
X73612500Y-12043750D02*
X73612500Y-8143750D01*
X94662500Y-12043750D02*
X94662500Y-8143750D01*
X92662500Y-12043750D02*
X92662500Y-8143750D01*
X94662500Y-12043750D02*
X92662500Y-12043750D01*
X113712500Y-12043750D02*
X111712500Y-12043750D01*
X111712500Y-12043750D02*
X111712500Y-8143750D01*
X113712500Y-12043750D02*
X113712500Y-8143750D01*
X133031250Y-12043750D02*
X131031250Y-12043750D01*
X133031250Y-12043750D02*
X133031250Y-8143750D01*
X131031250Y-12043750D02*
X131031250Y-8143750D01*
X152081250Y-12043750D02*
X152081250Y-8143750D01*
X150081250Y-12043750D02*
X150081250Y-8143750D01*
X152081250Y-12043750D02*
X150081250Y-12043750D01*
X169131250Y-12043750D02*
X169131250Y-8143750D01*
X171131250Y-12043750D02*
X169131250Y-12043750D01*
X171131250Y-12043750D02*
X171131250Y-8143750D01*
X188181250Y-12043750D02*
X188181250Y-8143750D01*
X190181250Y-12043750D02*
X188181250Y-12043750D01*
X190181250Y-12043750D02*
X190181250Y-8143750D01*
X209231250Y-12043750D02*
X209231250Y-8143750D01*
X207231250Y-12043750D02*
X207231250Y-8143750D01*
X209231250Y-12043750D02*
X207231250Y-12043750D01*
X248125000Y-12043750D02*
X248125000Y-8143750D01*
X248125000Y-12043750D02*
X246125000Y-12043750D01*
X246125000Y-12043750D02*
X246125000Y-8143750D01*
X285797500Y-18125000D02*
X285797500Y-14225000D01*
X283797500Y-18125000D02*
X283797500Y-14225000D01*
X285797500Y-18125000D02*
X283797500Y-18125000D01*
X288972500Y-17648750D02*
X286972500Y-17648750D01*
X288972500Y-17648750D02*
X288972500Y-13748750D01*
X286972500Y-17648750D02*
X286972500Y-13748750D01*
X6556250Y-32412500D02*
X4556250Y-32412500D01*
X4556250Y-32412500D02*
X4556250Y-28512500D01*
X6556250Y-32412500D02*
X6556250Y-28512500D01*
X68750000Y-32500000D02*
X68750000Y-28600000D01*
X66750000Y-32500000D02*
X66750000Y-28600000D01*
X68750000Y-32500000D02*
X66750000Y-32500000D01*
X65562500Y-31093750D02*
X65562500Y-27193750D01*
X65562500Y-31093750D02*
X63562500Y-31093750D01*
X63562500Y-31093750D02*
X63562500Y-27193750D01*
X84612500Y-31093750D02*
X82612500Y-31093750D01*
X82612500Y-31093750D02*
X82612500Y-27193750D01*
X84612500Y-31093750D02*
X84612500Y-27193750D01*
X85750000Y-32250000D02*
X85750000Y-28350000D01*
X87750000Y-32250000D02*
X87750000Y-28350000D01*
X87750000Y-32250000D02*
X85750000Y-32250000D01*
X104981250Y-31093750D02*
X102981250Y-31093750D01*
X102981250Y-31093750D02*
X102981250Y-27193750D01*
X104981250Y-31093750D02*
X104981250Y-27193750D01*
X124031250Y-31093750D02*
X124031250Y-27193750D01*
X122031250Y-31093750D02*
X122031250Y-27193750D01*
X124031250Y-31093750D02*
X122031250Y-31093750D01*
X143081250Y-31093750D02*
X143081250Y-27193750D01*
X141081250Y-31093750D02*
X141081250Y-27193750D01*
X143081250Y-31093750D02*
X141081250Y-31093750D01*
X160131250Y-31093750D02*
X160131250Y-27193750D01*
X162131250Y-31093750D02*
X160131250Y-31093750D01*
X162131250Y-31093750D02*
X162131250Y-27193750D01*
X181181250Y-31093750D02*
X179181250Y-31093750D01*
X179181250Y-31093750D02*
X179181250Y-27193750D01*
X181181250Y-31093750D02*
X181181250Y-27193750D01*
X198231250Y-31093750D02*
X198231250Y-27193750D01*
X200231250Y-31093750D02*
X200231250Y-27193750D01*
X200231250Y-31093750D02*
X198231250Y-31093750D01*
X219281250Y-31093750D02*
X219281250Y-27193750D01*
X219281250Y-31093750D02*
X217281250Y-31093750D01*
X217281250Y-31093750D02*
X217281250Y-27193750D01*
X238331250Y-31093750D02*
X238331250Y-27193750D01*
X236331250Y-31093750D02*
X236331250Y-27193750D01*
X238331250Y-31093750D02*
X236331250Y-31093750D01*
X260143750Y-31093750D02*
X260143750Y-27193750D01*
X262143750Y-31093750D02*
X260143750Y-31093750D01*
X262143750Y-31093750D02*
X262143750Y-27193750D01*
X285956250Y-31093750D02*
X285956250Y-27193750D01*
X285956250Y-31093750D02*
X283956250Y-31093750D01*
X283956250Y-31093750D02*
X283956250Y-27193750D01*
X27193750Y-53050000D02*
X25193750Y-53050000D01*
X25193750Y-53050000D02*
X25193750Y-49150000D01*
X27193750Y-53050000D02*
X27193750Y-49150000D01*
X49275000Y-50143750D02*
X49275000Y-46243750D01*
X51275000Y-50143750D02*
X51275000Y-46243750D01*
X51275000Y-50143750D02*
X49275000Y-50143750D01*
X52450000Y-51500000D02*
X52450000Y-47600000D01*
X54450000Y-51500000D02*
X52450000Y-51500000D01*
X54450000Y-51500000D02*
X54450000Y-47600000D01*
X71643750Y-50143750D02*
X71643750Y-46243750D01*
X69643750Y-50143750D02*
X69643750Y-46243750D01*
X71643750Y-50143750D02*
X69643750Y-50143750D01*
X109743750Y-50143750D02*
X107743750Y-50143750D01*
X107743750Y-50143750D02*
X107743750Y-46243750D01*
X109743750Y-50143750D02*
X109743750Y-46243750D01*
X128793750Y-50143750D02*
X128793750Y-46243750D01*
X128793750Y-50143750D02*
X126793750Y-50143750D01*
X126793750Y-50143750D02*
X126793750Y-46243750D01*
X147843750Y-50143750D02*
X145843750Y-50143750D01*
X147843750Y-50143750D02*
X147843750Y-46243750D01*
X145843750Y-50143750D02*
X145843750Y-46243750D01*
X164893750Y-50143750D02*
X164893750Y-46243750D01*
X166893750Y-50143750D02*
X166893750Y-46243750D01*
X166893750Y-50143750D02*
X164893750Y-50143750D01*
X185943750Y-50143750D02*
X183943750Y-50143750D01*
X185943750Y-50143750D02*
X185943750Y-46243750D01*
X183943750Y-50143750D02*
X183943750Y-46243750D01*
X204993750Y-50143750D02*
X204993750Y-46243750D01*
X204993750Y-50143750D02*
X202993750Y-50143750D01*
X202993750Y-50143750D02*
X202993750Y-46243750D01*
X224043750Y-50143750D02*
X224043750Y-46243750D01*
X224043750Y-50143750D02*
X222043750Y-50143750D01*
X222043750Y-50143750D02*
X222043750Y-46243750D01*
X253000000Y-50143750D02*
X253000000Y-46243750D01*
X255000000Y-50143750D02*
X253000000Y-50143750D01*
X255000000Y-50143750D02*
X255000000Y-46243750D01*
X283956250Y-50143750D02*
X283956250Y-46243750D01*
X285956250Y-50143750D02*
X283956250Y-50143750D01*
X285956250Y-50143750D02*
X285956250Y-46243750D01*
X27843750Y-69193750D02*
X27843750Y-65293750D01*
X29843750Y-69193750D02*
X27843750Y-69193750D01*
X29843750Y-69193750D02*
X29843750Y-65293750D01*
X41068750Y-69193750D02*
X41068750Y-65293750D01*
X43068750Y-69193750D02*
X41068750Y-69193750D01*
X43068750Y-69193750D02*
X43068750Y-65293750D01*
X62118750Y-69193750D02*
X62118750Y-65293750D01*
X60118750Y-69193750D02*
X60118750Y-65293750D01*
X62118750Y-69193750D02*
X60118750Y-69193750D01*
X81168750Y-69193750D02*
X79168750Y-69193750D01*
X79168750Y-69193750D02*
X79168750Y-65293750D01*
X81168750Y-69193750D02*
X81168750Y-65293750D01*
X100218750Y-69193750D02*
X98218750Y-69193750D01*
X98218750Y-69193750D02*
X98218750Y-65293750D01*
X100218750Y-69193750D02*
X100218750Y-65293750D01*
X119268750Y-69193750D02*
X119268750Y-65293750D01*
X119268750Y-69193750D02*
X117268750Y-69193750D01*
X117268750Y-69193750D02*
X117268750Y-65293750D01*
X138318750Y-69193750D02*
X136318750Y-69193750D01*
X138318750Y-69193750D02*
X138318750Y-65293750D01*
X136318750Y-69193750D02*
X136318750Y-65293750D01*
X157368750Y-69193750D02*
X155368750Y-69193750D01*
X155368750Y-69193750D02*
X155368750Y-65293750D01*
X157368750Y-69193750D02*
X157368750Y-65293750D01*
X176418750Y-69193750D02*
X174418750Y-69193750D01*
X174418750Y-69193750D02*
X174418750Y-65293750D01*
X176418750Y-69193750D02*
X176418750Y-65293750D01*
X195468750Y-69193750D02*
X195468750Y-65293750D01*
X195468750Y-69193750D02*
X193468750Y-69193750D01*
X193468750Y-69193750D02*
X193468750Y-65293750D01*
X214518750Y-69193750D02*
X212518750Y-69193750D01*
X214518750Y-69193750D02*
X214518750Y-65293750D01*
X212518750Y-69193750D02*
X212518750Y-65293750D01*
X238712500Y-69193750D02*
X238712500Y-65293750D01*
X240712500Y-69193750D02*
X238712500Y-69193750D01*
X240712500Y-69193750D02*
X240712500Y-65293750D01*
X264906250Y-69193750D02*
X264906250Y-65293750D01*
X266906250Y-69193750D02*
X264906250Y-69193750D01*
X266906250Y-69193750D02*
X266906250Y-65293750D01*
X285956250Y-69193750D02*
X283956250Y-69193750D01*
X285956250Y-69193750D02*
X285956250Y-65293750D01*
X283956250Y-69193750D02*
X283956250Y-65293750D01*
X23225000Y-86387500D02*
X21225000Y-86387500D01*
X23225000Y-86387500D02*
X23225000Y-82487500D01*
X21225000Y-86387500D02*
X21225000Y-82487500D01*
X25193750Y-86387500D02*
X25193750Y-82487500D01*
X27193750Y-86387500D02*
X27193750Y-82487500D01*
X27193750Y-86387500D02*
X25193750Y-86387500D01*
X51800000Y-86387500D02*
X49800000Y-86387500D01*
X51800000Y-86387500D02*
X51800000Y-82487500D01*
X49800000Y-86387500D02*
X49800000Y-82487500D01*
X120062500Y-88768750D02*
X120062500Y-84868750D01*
X118062500Y-88768750D02*
X118062500Y-84868750D01*
X120062500Y-88768750D02*
X118062500Y-88768750D01*
X213566250Y-88292500D02*
X211566250Y-88292500D01*
X211566250Y-88292500D02*
X211566250Y-84392500D01*
X213566250Y-88292500D02*
X213566250Y-84392500D01*
X259191250Y-92261250D02*
X259191250Y-88361250D01*
X261191250Y-92261250D02*
X259191250Y-92261250D01*
X261191250Y-92261250D02*
X261191250Y-88361250D01*
X273097500Y-92261250D02*
X273097500Y-88361250D01*
X271097500Y-92261250D02*
X271097500Y-88361250D01*
X273097500Y-92261250D02*
X271097500Y-92261250D01*
X285003750Y-92261250D02*
X285003750Y-88361250D01*
X285003750Y-92261250D02*
X283003750Y-92261250D01*
X283003750Y-92261250D02*
X283003750Y-88361250D01*
D10*
X2600000Y-4000000D02*
X2600000Y-8200000D01*
X2600000Y-8200000D02*
X6400000Y-8200000D01*
X8200000Y-6400000D02*
X14000000Y-6400000D01*
X14000000Y-6400000D02*
X14000000Y-2200000D01*
X14000000Y-2200000D02*
X4400000Y-2200000D01*
X8200000Y-6400000D02*
G75*
G03*
X6400000Y-8200000I1J-1800001D01*
G01*
X4400000Y-2200000D02*
G75*
G03*
X2600000Y-4000000I1J-1800001D01*
G01*
X21650000Y-4000000D02*
X21650000Y-8200000D01*
X33050000Y-2200000D02*
X23450000Y-2200000D01*
X33050000Y-6400000D02*
X33050000Y-2200000D01*
X21650000Y-8200000D02*
X25450000Y-8200000D01*
X27250000Y-6400000D02*
X33050000Y-6400000D01*
X27250000Y-6400000D02*
G75*
G03*
X25450000Y-8200000I1J-1800001D01*
G01*
X23450000Y-2200000D02*
G75*
G03*
X21650000Y-4000000I1J-1800001D01*
G01*
X40700000Y-8200000D02*
X44500000Y-8200000D01*
X46300000Y-6400000D02*
X52100000Y-6400000D01*
X52100000Y-6400000D02*
X52100000Y-2200000D01*
X52100000Y-2200000D02*
X42500000Y-2200000D01*
X40700000Y-4000000D02*
X40700000Y-8200000D01*
X46300000Y-6400000D02*
G75*
G03*
X44500000Y-8200000I1J-1800001D01*
G01*
X42500000Y-2200000D02*
G75*
G03*
X40700000Y-4000000I1J-1800001D01*
G01*
X59750000Y-8200000D02*
X63550000Y-8200000D01*
X59750000Y-4000000D02*
X59750000Y-8200000D01*
X65350000Y-6400000D02*
X71150000Y-6400000D01*
X71150000Y-6400000D02*
X71150000Y-2200000D01*
X71150000Y-2200000D02*
X61550000Y-2200000D01*
X65350000Y-6400000D02*
G75*
G03*
X63550000Y-8200000I1J-1800001D01*
G01*
X61550000Y-2200000D02*
G75*
G03*
X59750000Y-4000000I1J-1800001D01*
G01*
X84400000Y-6400000D02*
X90200000Y-6400000D01*
X90200000Y-2200000D02*
X80600000Y-2200000D01*
X90200000Y-6400000D02*
X90200000Y-2200000D01*
X78800000Y-4000000D02*
X78800000Y-8200000D01*
X78800000Y-8200000D02*
X82600000Y-8200000D01*
X80600000Y-2200000D02*
G75*
G03*
X78800000Y-4000000I1J-1800001D01*
G01*
X84400000Y-6400000D02*
G75*
G03*
X82600000Y-8200000I1J-1800001D01*
G01*
X109250000Y-2200000D02*
X99650000Y-2200000D01*
X97850000Y-4000000D02*
X97850000Y-8200000D01*
X97850000Y-8200000D02*
X101650000Y-8200000D01*
X109250000Y-6400000D02*
X109250000Y-2200000D01*
X103450000Y-6400000D02*
X109250000Y-6400000D01*
X99650000Y-2200000D02*
G75*
G03*
X97850000Y-4000000I1J-1800001D01*
G01*
X103450000Y-6400000D02*
G75*
G03*
X101650000Y-8200000I1J-1800001D01*
G01*
X128300000Y-6400000D02*
X128300000Y-2200000D01*
X116900000Y-4000000D02*
X116900000Y-8200000D01*
X128300000Y-2200000D02*
X118700000Y-2200000D01*
X116900000Y-8200000D02*
X120700000Y-8200000D01*
X122500000Y-6400000D02*
X128300000Y-6400000D01*
X118700000Y-2200000D02*
G75*
G03*
X116900000Y-4000000I1J-1800001D01*
G01*
X122500000Y-6400000D02*
G75*
G03*
X120700000Y-8200000I1J-1800001D01*
G01*
X160600000Y-6400000D02*
X166400000Y-6400000D01*
X155000000Y-8200000D02*
X158800000Y-8200000D01*
X166400000Y-2200000D02*
X156800000Y-2200000D01*
X155000000Y-4000000D02*
X155000000Y-8200000D01*
X166400000Y-6400000D02*
X166400000Y-2200000D01*
X160600000Y-6400000D02*
G75*
G03*
X158800000Y-8200000I1J-1800001D01*
G01*
X156800000Y-2200000D02*
G75*
G03*
X155000000Y-4000000I1J-1800001D01*
G01*
X185450000Y-6400000D02*
X185450000Y-2200000D01*
X174050000Y-4000000D02*
X174050000Y-8200000D01*
X179650000Y-6400000D02*
X185450000Y-6400000D01*
X174050000Y-8200000D02*
X177850000Y-8200000D01*
X185450000Y-2200000D02*
X175850000Y-2200000D01*
X175850000Y-2200000D02*
G75*
G03*
X174050000Y-4000000I1J-1800001D01*
G01*
X179650000Y-6400000D02*
G75*
G03*
X177850000Y-8200000I1J-1800001D01*
G01*
X193100000Y-4000000D02*
X193100000Y-8200000D01*
X204500000Y-6400000D02*
X204500000Y-2200000D01*
X204500000Y-2200000D02*
X194900000Y-2200000D01*
X198700000Y-6400000D02*
X204500000Y-6400000D01*
X193100000Y-8200000D02*
X196900000Y-8200000D01*
X194900000Y-2200000D02*
G75*
G03*
X193100000Y-4000000I1J-1800001D01*
G01*
X198700000Y-6400000D02*
G75*
G03*
X196900000Y-8200000I1J-1800001D01*
G01*
X217750000Y-6400000D02*
X223550000Y-6400000D01*
X212150000Y-8200000D02*
X215950000Y-8200000D01*
X223550000Y-6400000D02*
X223550000Y-2200000D01*
X212150000Y-4000000D02*
X212150000Y-8200000D01*
X223550000Y-2200000D02*
X213950000Y-2200000D01*
X213950000Y-2200000D02*
G75*
G03*
X212150000Y-4000000I1J-1800001D01*
G01*
X217750000Y-6400000D02*
G75*
G03*
X215950000Y-8200000I1J-1800001D01*
G01*
X236800000Y-6400000D02*
X242600000Y-6400000D01*
X242600000Y-2200000D02*
X233000000Y-2200000D01*
X231200000Y-4000000D02*
X231200000Y-8200000D01*
X231200000Y-8200000D02*
X235000000Y-8200000D01*
X242600000Y-6400000D02*
X242600000Y-2200000D01*
X236800000Y-6400000D02*
G75*
G03*
X235000000Y-8200000I1J-1800001D01*
G01*
X233000000Y-2200000D02*
G75*
G03*
X231200000Y-4000000I1J-1800001D01*
G01*
X251650000Y-11600000D02*
X251650000Y-15800000D01*
X263050000Y-9800000D02*
X259250000Y-9800000D01*
X257450000Y-11600000D02*
X251650000Y-11600000D01*
X263050000Y-14000000D02*
X263050000Y-9800000D01*
X251650000Y-15800000D02*
X261250000Y-15800000D01*
X261250000Y-15800000D02*
G75*
G03*
X263050000Y-14000000I-1J1800001D01*
G01*
X257450000Y-11600000D02*
G75*
G03*
X259250000Y-9800000I-1J1800001D01*
G01*
X265375000Y-6400000D02*
X271175000Y-6400000D01*
X271175000Y-2200000D02*
X261575000Y-2200000D01*
X271175000Y-6400000D02*
X271175000Y-2200000D01*
X259775000Y-8200000D02*
X263575000Y-8200000D01*
X259775000Y-4000000D02*
X259775000Y-8200000D01*
X265375000Y-6400000D02*
G75*
G03*
X263575000Y-8200000I1J-1800001D01*
G01*
X261575000Y-2200000D02*
G75*
G03*
X259775000Y-4000000I1J-1800001D01*
G01*
X12962500Y-25450000D02*
X18762500Y-25450000D01*
X18762500Y-21250000D02*
X9162500Y-21250000D01*
X18762500Y-25450000D02*
X18762500Y-21250000D01*
X7362500Y-23050000D02*
X7362500Y-27250000D01*
X7362500Y-27250000D02*
X11162500Y-27250000D01*
X12962500Y-25450000D02*
G75*
G03*
X11162500Y-27250000I1J-1800001D01*
G01*
X9162500Y-21250000D02*
G75*
G03*
X7362500Y-23050000I1J-1800001D01*
G01*
X42575000Y-25450000D02*
X42575000Y-21250000D01*
X31175000Y-23050000D02*
X31175000Y-27250000D01*
X31175000Y-27250000D02*
X34975000Y-27250000D01*
X42575000Y-21250000D02*
X32975000Y-21250000D01*
X36775000Y-25450000D02*
X42575000Y-25450000D01*
X36775000Y-25450000D02*
G75*
G03*
X34975000Y-27250000I1J-1800001D01*
G01*
X32975000Y-21250000D02*
G75*
G03*
X31175000Y-23050000I1J-1800001D01*
G01*
X55825000Y-25450000D02*
X61625000Y-25450000D01*
X61625000Y-21250000D02*
X52025000Y-21250000D01*
X50225000Y-23050000D02*
X50225000Y-27250000D01*
X61625000Y-25450000D02*
X61625000Y-21250000D01*
X50225000Y-27250000D02*
X54025000Y-27250000D01*
X52025000Y-21250000D02*
G75*
G03*
X50225000Y-23050000I1J-1800001D01*
G01*
X55825000Y-25450000D02*
G75*
G03*
X54025000Y-27250000I1J-1800001D01*
G01*
X69275000Y-23050000D02*
X69275000Y-27250000D01*
X69275000Y-27250000D02*
X73075000Y-27250000D01*
X74875000Y-25450000D02*
X80675000Y-25450000D01*
X80675000Y-21250000D02*
X71075000Y-21250000D01*
X80675000Y-25450000D02*
X80675000Y-21250000D01*
X74875000Y-25450000D02*
G75*
G03*
X73075000Y-27250000I1J-1800001D01*
G01*
X71075000Y-21250000D02*
G75*
G03*
X69275000Y-23050000I1J-1800001D01*
G01*
X99725000Y-25450000D02*
X99725000Y-21250000D01*
X88325000Y-23050000D02*
X88325000Y-27250000D01*
X93925000Y-25450000D02*
X99725000Y-25450000D01*
X88325000Y-27250000D02*
X92125000Y-27250000D01*
X99725000Y-21250000D02*
X90125000Y-21250000D01*
X93925000Y-25450000D02*
G75*
G03*
X92125000Y-27250000I1J-1800001D01*
G01*
X90125000Y-21250000D02*
G75*
G03*
X88325000Y-23050000I1J-1800001D01*
G01*
X118775000Y-25450000D02*
X118775000Y-21250000D01*
X118775000Y-21250000D02*
X109175000Y-21250000D01*
X107375000Y-27250000D02*
X111175000Y-27250000D01*
X112975000Y-25450000D02*
X118775000Y-25450000D01*
X107375000Y-23050000D02*
X107375000Y-27250000D01*
X109175000Y-21250000D02*
G75*
G03*
X107375000Y-23050000I1J-1800001D01*
G01*
X112975000Y-25450000D02*
G75*
G03*
X111175000Y-27250000I1J-1800001D01*
G01*
X126425000Y-23050000D02*
X126425000Y-27250000D01*
X137825000Y-25450000D02*
X137825000Y-21250000D01*
X132025000Y-25450000D02*
X137825000Y-25450000D01*
X137825000Y-21250000D02*
X128225000Y-21250000D01*
X126425000Y-27250000D02*
X130225000Y-27250000D01*
X132025000Y-25450000D02*
G75*
G03*
X130225000Y-27250000I1J-1800001D01*
G01*
X128225000Y-21250000D02*
G75*
G03*
X126425000Y-23050000I1J-1800001D01*
G01*
X145475000Y-27250000D02*
X149275000Y-27250000D01*
X156875000Y-21250000D02*
X147275000Y-21250000D01*
X145475000Y-23050000D02*
X145475000Y-27250000D01*
X151075000Y-25450000D02*
X156875000Y-25450000D01*
X156875000Y-25450000D02*
X156875000Y-21250000D01*
X151075000Y-25450000D02*
G75*
G03*
X149275000Y-27250000I1J-1800001D01*
G01*
X147275000Y-21250000D02*
G75*
G03*
X145475000Y-23050000I1J-1800001D01*
G01*
X175925000Y-25450000D02*
X175925000Y-21250000D01*
X175925000Y-21250000D02*
X166325000Y-21250000D01*
X164525000Y-27250000D02*
X168325000Y-27250000D01*
X170125000Y-25450000D02*
X175925000Y-25450000D01*
X164525000Y-23050000D02*
X164525000Y-27250000D01*
X166325000Y-21250000D02*
G75*
G03*
X164525000Y-23050000I1J-1800001D01*
G01*
X170125000Y-25450000D02*
G75*
G03*
X168325000Y-27250000I1J-1800001D01*
G01*
X194975000Y-25450000D02*
X194975000Y-21250000D01*
X189175000Y-25450000D02*
X194975000Y-25450000D01*
X194975000Y-21250000D02*
X185375000Y-21250000D01*
X183575000Y-23050000D02*
X183575000Y-27250000D01*
X183575000Y-27250000D02*
X187375000Y-27250000D01*
X185375000Y-21250000D02*
G75*
G03*
X183575000Y-23050000I1J-1800001D01*
G01*
X189175000Y-25450000D02*
G75*
G03*
X187375000Y-27250000I1J-1800001D01*
G01*
X202625000Y-23050000D02*
X202625000Y-27250000D01*
X208225000Y-25450000D02*
X214025000Y-25450000D01*
X202625000Y-27250000D02*
X206425000Y-27250000D01*
X214025000Y-21250000D02*
X204425000Y-21250000D01*
X214025000Y-25450000D02*
X214025000Y-21250000D01*
X204425000Y-21250000D02*
G75*
G03*
X202625000Y-23050000I1J-1800001D01*
G01*
X208225000Y-25450000D02*
G75*
G03*
X206425000Y-27250000I1J-1800001D01*
G01*
X221675000Y-27250000D02*
X225475000Y-27250000D01*
X233075000Y-25450000D02*
X233075000Y-21250000D01*
X233075000Y-21250000D02*
X223475000Y-21250000D01*
X221675000Y-23050000D02*
X221675000Y-27250000D01*
X227275000Y-25450000D02*
X233075000Y-25450000D01*
X223475000Y-21250000D02*
G75*
G03*
X221675000Y-23050000I1J-1800001D01*
G01*
X227275000Y-25450000D02*
G75*
G03*
X225475000Y-27250000I1J-1800001D01*
G01*
X252125000Y-21250000D02*
X242525000Y-21250000D01*
X252125000Y-25450000D02*
X252125000Y-21250000D01*
X240725000Y-27250000D02*
X244525000Y-27250000D01*
X246325000Y-25450000D02*
X252125000Y-25450000D01*
X240725000Y-23050000D02*
X240725000Y-27250000D01*
X246325000Y-25450000D02*
G75*
G03*
X244525000Y-27250000I1J-1800001D01*
G01*
X242525000Y-21250000D02*
G75*
G03*
X240725000Y-23050000I1J-1800001D01*
G01*
X264537500Y-23050000D02*
X264537500Y-27250000D01*
X275937500Y-21250000D02*
X266337500Y-21250000D01*
X264537500Y-27250000D02*
X268337500Y-27250000D01*
X275937500Y-25450000D02*
X275937500Y-21250000D01*
X270137500Y-25450000D02*
X275937500Y-25450000D01*
X266337500Y-21250000D02*
G75*
G03*
X264537500Y-23050000I1J-1800001D01*
G01*
X270137500Y-25450000D02*
G75*
G03*
X268337500Y-27250000I1J-1800001D01*
G01*
X299750000Y-25450000D02*
X299750000Y-21250000D01*
X288350000Y-27250000D02*
X292150000Y-27250000D01*
X293950000Y-25450000D02*
X299750000Y-25450000D01*
X299750000Y-21250000D02*
X290150000Y-21250000D01*
X288350000Y-23050000D02*
X288350000Y-27250000D01*
X290150000Y-21250000D02*
G75*
G03*
X288350000Y-23050000I1J-1800001D01*
G01*
X293950000Y-25450000D02*
G75*
G03*
X292150000Y-27250000I1J-1800001D01*
G01*
X16381250Y-44500000D02*
X16381250Y-40300000D01*
X4981250Y-46300000D02*
X8781250Y-46300000D01*
X10581250Y-44500000D02*
X16381250Y-44500000D01*
X4981250Y-42100000D02*
X4981250Y-46300000D01*
X16381250Y-40300000D02*
X6781250Y-40300000D01*
X6781250Y-40300000D02*
G75*
G03*
X4981250Y-42100000I1J-1800001D01*
G01*
X10581250Y-44500000D02*
G75*
G03*
X8781250Y-46300000I1J-1800001D01*
G01*
X22543750Y-47900000D02*
X18743750Y-47900000D01*
X11143750Y-49700000D02*
X11143750Y-53900000D01*
X16943750Y-49700000D02*
X11143750Y-49700000D01*
X22543750Y-52100000D02*
X22543750Y-47900000D01*
X11143750Y-53900000D02*
X20743750Y-53900000D01*
X16943750Y-49700000D02*
G75*
G03*
X18743750Y-47900000I-1J1800001D01*
G01*
X20743750Y-53900000D02*
G75*
G03*
X22543750Y-52100000I-1J1800001D01*
G01*
X47337500Y-44500000D02*
X47337500Y-40300000D01*
X35937500Y-42100000D02*
X35937500Y-46300000D01*
X47337500Y-40300000D02*
X37737500Y-40300000D01*
X35937500Y-46300000D02*
X39737500Y-46300000D01*
X41537500Y-44500000D02*
X47337500Y-44500000D01*
X37737500Y-40300000D02*
G75*
G03*
X35937500Y-42100000I1J-1800001D01*
G01*
X41537500Y-44500000D02*
G75*
G03*
X39737500Y-46300000I1J-1800001D01*
G01*
X66387500Y-40300000D02*
X56787500Y-40300000D01*
X66387500Y-44500000D02*
X66387500Y-40300000D01*
X54987500Y-46300000D02*
X58787500Y-46300000D01*
X60587500Y-44500000D02*
X66387500Y-44500000D01*
X54987500Y-42100000D02*
X54987500Y-46300000D01*
X60587500Y-44500000D02*
G75*
G03*
X58787500Y-46300000I1J-1800001D01*
G01*
X56787500Y-40300000D02*
G75*
G03*
X54987500Y-42100000I1J-1800001D01*
G01*
X79637500Y-44500000D02*
X85437500Y-44500000D01*
X74037500Y-46300000D02*
X77837500Y-46300000D01*
X85437500Y-40300000D02*
X75837500Y-40300000D01*
X74037500Y-42100000D02*
X74037500Y-46300000D01*
X85437500Y-44500000D02*
X85437500Y-40300000D01*
X79637500Y-44500000D02*
G75*
G03*
X77837500Y-46300000I1J-1800001D01*
G01*
X75837500Y-40300000D02*
G75*
G03*
X74037500Y-42100000I1J-1800001D01*
G01*
X104487500Y-44500000D02*
X104487500Y-40300000D01*
X98687500Y-44500000D02*
X104487500Y-44500000D01*
X93087500Y-46300000D02*
X96887500Y-46300000D01*
X93087500Y-42100000D02*
X93087500Y-46300000D01*
X104487500Y-40300000D02*
X94887500Y-40300000D01*
X98687500Y-44500000D02*
G75*
G03*
X96887500Y-46300000I1J-1800001D01*
G01*
X94887500Y-40300000D02*
G75*
G03*
X93087500Y-42100000I1J-1800001D01*
G01*
X117737500Y-44500000D02*
X123537500Y-44500000D01*
X112137500Y-42100000D02*
X112137500Y-46300000D01*
X123537500Y-40300000D02*
X113937500Y-40300000D01*
X123537500Y-44500000D02*
X123537500Y-40300000D01*
X112137500Y-46300000D02*
X115937500Y-46300000D01*
X113937500Y-40300000D02*
G75*
G03*
X112137500Y-42100000I1J-1800001D01*
G01*
X117737500Y-44500000D02*
G75*
G03*
X115937500Y-46300000I1J-1800001D01*
G01*
X142587500Y-40300000D02*
X132987500Y-40300000D01*
X131187500Y-42100000D02*
X131187500Y-46300000D01*
X136787500Y-44500000D02*
X142587500Y-44500000D01*
X142587500Y-44500000D02*
X142587500Y-40300000D01*
X131187500Y-46300000D02*
X134987500Y-46300000D01*
X136787500Y-44500000D02*
G75*
G03*
X134987500Y-46300000I1J-1800001D01*
G01*
X132987500Y-40300000D02*
G75*
G03*
X131187500Y-42100000I1J-1800001D01*
G01*
X161637500Y-40300000D02*
X152037500Y-40300000D01*
X150237500Y-42100000D02*
X150237500Y-46300000D01*
X150237500Y-46300000D02*
X154037500Y-46300000D01*
X155837500Y-44500000D02*
X161637500Y-44500000D01*
X161637500Y-44500000D02*
X161637500Y-40300000D01*
X155837500Y-44500000D02*
G75*
G03*
X154037500Y-46300000I1J-1800001D01*
G01*
X152037500Y-40300000D02*
G75*
G03*
X150237500Y-42100000I1J-1800001D01*
G01*
X180687500Y-40300000D02*
X171087500Y-40300000D01*
X180687500Y-44500000D02*
X180687500Y-40300000D01*
X169287500Y-46300000D02*
X173087500Y-46300000D01*
X174887500Y-44500000D02*
X180687500Y-44500000D01*
X169287500Y-42100000D02*
X169287500Y-46300000D01*
X174887500Y-44500000D02*
G75*
G03*
X173087500Y-46300000I1J-1800001D01*
G01*
X171087500Y-40300000D02*
G75*
G03*
X169287500Y-42100000I1J-1800001D01*
G01*
X199737500Y-44500000D02*
X199737500Y-40300000D01*
X199737500Y-40300000D02*
X190137500Y-40300000D01*
X193937500Y-44500000D02*
X199737500Y-44500000D01*
X188337500Y-42100000D02*
X188337500Y-46300000D01*
X188337500Y-46300000D02*
X192137500Y-46300000D01*
X190137500Y-40300000D02*
G75*
G03*
X188337500Y-42100000I1J-1800001D01*
G01*
X193937500Y-44500000D02*
G75*
G03*
X192137500Y-46300000I1J-1800001D01*
G01*
X218787500Y-44500000D02*
X218787500Y-40300000D01*
X212987500Y-44500000D02*
X218787500Y-44500000D01*
X207387500Y-46300000D02*
X211187500Y-46300000D01*
X218787500Y-40300000D02*
X209187500Y-40300000D01*
X207387500Y-42100000D02*
X207387500Y-46300000D01*
X209187500Y-40300000D02*
G75*
G03*
X207387500Y-42100000I1J-1800001D01*
G01*
X212987500Y-44500000D02*
G75*
G03*
X211187500Y-46300000I1J-1800001D01*
G01*
X237837500Y-44500000D02*
X237837500Y-40300000D01*
X226437500Y-46300000D02*
X230237500Y-46300000D01*
X237837500Y-40300000D02*
X228237500Y-40300000D01*
X232037500Y-44500000D02*
X237837500Y-44500000D01*
X226437500Y-42100000D02*
X226437500Y-46300000D01*
X232037500Y-44500000D02*
G75*
G03*
X230237500Y-46300000I1J-1800001D01*
G01*
X228237500Y-40300000D02*
G75*
G03*
X226437500Y-42100000I1J-1800001D01*
G01*
X268793750Y-44500000D02*
X268793750Y-40300000D01*
X257393750Y-42100000D02*
X257393750Y-46300000D01*
X262993750Y-44500000D02*
X268793750Y-44500000D01*
X257393750Y-46300000D02*
X261193750Y-46300000D01*
X268793750Y-40300000D02*
X259193750Y-40300000D01*
X259193750Y-40300000D02*
G75*
G03*
X257393750Y-42100000I1J-1800001D01*
G01*
X262993750Y-44500000D02*
G75*
G03*
X261193750Y-46300000I1J-1800001D01*
G01*
X299750000Y-44500000D02*
X299750000Y-40300000D01*
X288350000Y-46300000D02*
X292150000Y-46300000D01*
X299750000Y-40300000D02*
X290150000Y-40300000D01*
X293950000Y-44500000D02*
X299750000Y-44500000D01*
X288350000Y-42100000D02*
X288350000Y-46300000D01*
X293950000Y-44500000D02*
G75*
G03*
X292150000Y-46300000I1J-1800001D01*
G01*
X290150000Y-40300000D02*
G75*
G03*
X288350000Y-42100000I1J-1800001D01*
G01*
X14506250Y-65350000D02*
X18306250Y-65350000D01*
X14506250Y-61150000D02*
X14506250Y-65350000D01*
X25906250Y-59350000D02*
X16306250Y-59350000D01*
X25906250Y-63550000D02*
X25906250Y-59350000D01*
X20106250Y-63550000D02*
X25906250Y-63550000D01*
X20106250Y-63550000D02*
G75*
G03*
X18306250Y-65350000I1J-1800001D01*
G01*
X16306250Y-59350000D02*
G75*
G03*
X14506250Y-61150000I1J-1800001D01*
G01*
X45462500Y-65350000D02*
X49262500Y-65350000D01*
X45462500Y-61150000D02*
X45462500Y-65350000D01*
X51062500Y-63550000D02*
X56862500Y-63550000D01*
X56862500Y-59350000D02*
X47262500Y-59350000D01*
X56862500Y-63550000D02*
X56862500Y-59350000D01*
X47262500Y-59350000D02*
G75*
G03*
X45462500Y-61150000I1J-1800001D01*
G01*
X51062500Y-63550000D02*
G75*
G03*
X49262500Y-65350000I1J-1800001D01*
G01*
X64512500Y-65350000D02*
X68312500Y-65350000D01*
X75912500Y-59350000D02*
X66312500Y-59350000D01*
X75912500Y-63550000D02*
X75912500Y-59350000D01*
X70112500Y-63550000D02*
X75912500Y-63550000D01*
X64512500Y-61150000D02*
X64512500Y-65350000D01*
X70112500Y-63550000D02*
G75*
G03*
X68312500Y-65350000I1J-1800001D01*
G01*
X66312500Y-59350000D02*
G75*
G03*
X64512500Y-61150000I1J-1800001D01*
G01*
X83562500Y-61150000D02*
X83562500Y-65350000D01*
X94962500Y-63550000D02*
X94962500Y-59350000D01*
X83562500Y-65350000D02*
X87362500Y-65350000D01*
X89162500Y-63550000D02*
X94962500Y-63550000D01*
X94962500Y-59350000D02*
X85362500Y-59350000D01*
X85362500Y-59350000D02*
G75*
G03*
X83562500Y-61150000I1J-1800001D01*
G01*
X89162500Y-63550000D02*
G75*
G03*
X87362500Y-65350000I1J-1800001D01*
G01*
X108212500Y-63550000D02*
X114012500Y-63550000D01*
X102612500Y-61150000D02*
X102612500Y-65350000D01*
X114012500Y-59350000D02*
X104412500Y-59350000D01*
X114012500Y-63550000D02*
X114012500Y-59350000D01*
X102612500Y-65350000D02*
X106412500Y-65350000D01*
X104412500Y-59350000D02*
G75*
G03*
X102612500Y-61150000I1J-1800001D01*
G01*
X108212500Y-63550000D02*
G75*
G03*
X106412500Y-65350000I1J-1800001D01*
G01*
X133062500Y-63550000D02*
X133062500Y-59350000D01*
X121662500Y-65350000D02*
X125462500Y-65350000D01*
X133062500Y-59350000D02*
X123462500Y-59350000D01*
X121662500Y-61150000D02*
X121662500Y-65350000D01*
X127262500Y-63550000D02*
X133062500Y-63550000D01*
X123462500Y-59350000D02*
G75*
G03*
X121662500Y-61150000I1J-1800001D01*
G01*
X127262500Y-63550000D02*
G75*
G03*
X125462500Y-65350000I1J-1800001D01*
G01*
X152112500Y-63550000D02*
X152112500Y-59350000D01*
X152112500Y-59350000D02*
X142512500Y-59350000D01*
X140712500Y-65350000D02*
X144512500Y-65350000D01*
X140712500Y-61150000D02*
X140712500Y-65350000D01*
X146312500Y-63550000D02*
X152112500Y-63550000D01*
X142512500Y-59350000D02*
G75*
G03*
X140712500Y-61150000I1J-1800001D01*
G01*
X146312500Y-63550000D02*
G75*
G03*
X144512500Y-65350000I1J-1800001D01*
G01*
X165362500Y-63550000D02*
X171162500Y-63550000D01*
X171162500Y-63550000D02*
X171162500Y-59350000D01*
X159762500Y-65350000D02*
X163562500Y-65350000D01*
X171162500Y-59350000D02*
X161562500Y-59350000D01*
X159762500Y-61150000D02*
X159762500Y-65350000D01*
X165362500Y-63550000D02*
G75*
G03*
X163562500Y-65350000I1J-1800001D01*
G01*
X161562500Y-59350000D02*
G75*
G03*
X159762500Y-61150000I1J-1800001D01*
G01*
X178812500Y-61150000D02*
X178812500Y-65350000D01*
X184412500Y-63550000D02*
X190212500Y-63550000D01*
X178812500Y-65350000D02*
X182612500Y-65350000D01*
X190212500Y-63550000D02*
X190212500Y-59350000D01*
X190212500Y-59350000D02*
X180612500Y-59350000D01*
X180612500Y-59350000D02*
G75*
G03*
X178812500Y-61150000I1J-1800001D01*
G01*
X184412500Y-63550000D02*
G75*
G03*
X182612500Y-65350000I1J-1800001D01*
G01*
X209262500Y-63550000D02*
X209262500Y-59350000D01*
X203462500Y-63550000D02*
X209262500Y-63550000D01*
X197862500Y-65350000D02*
X201662500Y-65350000D01*
X209262500Y-59350000D02*
X199662500Y-59350000D01*
X197862500Y-61150000D02*
X197862500Y-65350000D01*
X199662500Y-59350000D02*
G75*
G03*
X197862500Y-61150000I1J-1800001D01*
G01*
X203462500Y-63550000D02*
G75*
G03*
X201662500Y-65350000I1J-1800001D01*
G01*
X216912500Y-61150000D02*
X216912500Y-65350000D01*
X222512500Y-63550000D02*
X228312500Y-63550000D01*
X228312500Y-63550000D02*
X228312500Y-59350000D01*
X216912500Y-65350000D02*
X220712500Y-65350000D01*
X228312500Y-59350000D02*
X218712500Y-59350000D01*
X222512500Y-63550000D02*
G75*
G03*
X220712500Y-65350000I1J-1800001D01*
G01*
X218712500Y-59350000D02*
G75*
G03*
X216912500Y-61150000I1J-1800001D01*
G01*
X254506250Y-59350000D02*
X244906250Y-59350000D01*
X254506250Y-63550000D02*
X254506250Y-59350000D01*
X248706250Y-63550000D02*
X254506250Y-63550000D01*
X243106250Y-61150000D02*
X243106250Y-65350000D01*
X243106250Y-65350000D02*
X246906250Y-65350000D01*
X244906250Y-59350000D02*
G75*
G03*
X243106250Y-61150000I1J-1800001D01*
G01*
X248706250Y-63550000D02*
G75*
G03*
X246906250Y-65350000I1J-1800001D01*
G01*
X274900000Y-63550000D02*
X280700000Y-63550000D01*
X269300000Y-65350000D02*
X273100000Y-65350000D01*
X280700000Y-63550000D02*
X280700000Y-59350000D01*
X280700000Y-59350000D02*
X271100000Y-59350000D01*
X269300000Y-61150000D02*
X269300000Y-65350000D01*
X271100000Y-59350000D02*
G75*
G03*
X269300000Y-61150000I1J-1800001D01*
G01*
X274900000Y-63550000D02*
G75*
G03*
X273100000Y-65350000I1J-1800001D01*
G01*
X293950000Y-63550000D02*
X299750000Y-63550000D01*
X299750000Y-59350000D02*
X290150000Y-59350000D01*
X288350000Y-61150000D02*
X288350000Y-65350000D01*
X288350000Y-65350000D02*
X292150000Y-65350000D01*
X299750000Y-63550000D02*
X299750000Y-59350000D01*
X293950000Y-63550000D02*
G75*
G03*
X292150000Y-65350000I1J-1800001D01*
G01*
X290150000Y-59350000D02*
G75*
G03*
X288350000Y-61150000I1J-1800001D01*
G01*
X7362500Y-84400000D02*
X11162500Y-84400000D01*
X7362500Y-80200000D02*
X7362500Y-84400000D01*
X18762500Y-78400000D02*
X9162500Y-78400000D01*
X12962500Y-82600000D02*
X18762500Y-82600000D01*
X18762500Y-82600000D02*
X18762500Y-78400000D01*
X9162500Y-78400000D02*
G75*
G03*
X7362500Y-80200000I1J-1800001D01*
G01*
X12962500Y-82600000D02*
G75*
G03*
X11162500Y-84400000I1J-1800001D01*
G01*
X42575000Y-82600000D02*
X42575000Y-78400000D01*
X31175000Y-84400000D02*
X34975000Y-84400000D01*
X31175000Y-80200000D02*
X31175000Y-84400000D01*
X42575000Y-78400000D02*
X32975000Y-78400000D01*
X36775000Y-82600000D02*
X42575000Y-82600000D01*
X36775000Y-82600000D02*
G75*
G03*
X34975000Y-84400000I1J-1800001D01*
G01*
X32975000Y-78400000D02*
G75*
G03*
X31175000Y-80200000I1J-1800001D01*
G01*
X54987500Y-84400000D02*
X58787500Y-84400000D01*
X66387500Y-82600000D02*
X66387500Y-78400000D01*
X54987500Y-80200000D02*
X54987500Y-84400000D01*
X60587500Y-82600000D02*
X66387500Y-82600000D01*
X66387500Y-78400000D02*
X56787500Y-78400000D01*
X60587500Y-82600000D02*
G75*
G03*
X58787500Y-84400000I1J-1800001D01*
G01*
X56787500Y-78400000D02*
G75*
G03*
X54987500Y-80200000I1J-1800001D01*
G01*
X195481250Y-80200000D02*
X195481250Y-84400000D01*
X206881250Y-82600000D02*
X206881250Y-78400000D01*
X206881250Y-78400000D02*
X197281250Y-78400000D01*
X195481250Y-84400000D02*
X199281250Y-84400000D01*
X201081250Y-82600000D02*
X206881250Y-82600000D01*
X201081250Y-82600000D02*
G75*
G03*
X199281250Y-84400000I1J-1800001D01*
G01*
X197281250Y-78400000D02*
G75*
G03*
X195481250Y-80200000I1J-1800001D01*
G01*
X228312500Y-82600000D02*
X228312500Y-78400000D01*
X222512500Y-82600000D02*
X228312500Y-82600000D01*
X216912500Y-84400000D02*
X220712500Y-84400000D01*
X216912500Y-80200000D02*
X216912500Y-84400000D01*
X228312500Y-78400000D02*
X218712500Y-78400000D01*
X222512500Y-82600000D02*
G75*
G03*
X220712500Y-84400000I1J-1800001D01*
G01*
X218712500Y-78400000D02*
G75*
G03*
X216912500Y-80200000I1J-1800001D01*
G01*
X250250000Y-80200000D02*
X250250000Y-84400000D01*
X250250000Y-84400000D02*
X254050000Y-84400000D01*
X255850000Y-82600000D02*
X261650000Y-82600000D01*
X261650000Y-78400000D02*
X252050000Y-78400000D01*
X261650000Y-82600000D02*
X261650000Y-78400000D01*
X252050000Y-78400000D02*
G75*
G03*
X250250000Y-80200000I1J-1800001D01*
G01*
X255850000Y-82600000D02*
G75*
G03*
X254050000Y-84400000I1J-1800001D01*
G01*
X280700000Y-78400000D02*
X271100000Y-78400000D01*
X269300000Y-80200000D02*
X269300000Y-84400000D01*
X274900000Y-82600000D02*
X280700000Y-82600000D01*
X269300000Y-84400000D02*
X273100000Y-84400000D01*
X280700000Y-82600000D02*
X280700000Y-78400000D01*
X271100000Y-78400000D02*
G75*
G03*
X269300000Y-80200000I1J-1800001D01*
G01*
X274900000Y-82600000D02*
G75*
G03*
X273100000Y-84400000I1J-1800001D01*
G01*
X293950000Y-82600000D02*
X299750000Y-82600000D01*
X299750000Y-82600000D02*
X299750000Y-78400000D01*
X288350000Y-80200000D02*
X288350000Y-84400000D01*
X299750000Y-78400000D02*
X290150000Y-78400000D01*
X288350000Y-84400000D02*
X292150000Y-84400000D01*
X290150000Y-78400000D02*
G75*
G03*
X288350000Y-80200000I1J-1800001D01*
G01*
X293950000Y-82600000D02*
G75*
G03*
X292150000Y-84400000I1J-1800001D01*
G01*
X232093750Y-86000000D02*
X228293750Y-86000000D01*
X220693750Y-87800000D02*
X220693750Y-92000000D01*
X232093750Y-90200000D02*
X232093750Y-86000000D01*
X226493750Y-87800000D02*
X220693750Y-87800000D01*
X220693750Y-92000000D02*
X230293750Y-92000000D01*
X230293750Y-92000000D02*
G75*
G03*
X232093750Y-90200000I-1J1800001D01*
G01*
X226493750Y-87800000D02*
G75*
G03*
X228293750Y-86000000I-1J1800001D01*
G01*
X148750000Y-90200000D02*
X148750000Y-86000000D01*
X137350000Y-92000000D02*
X146950000Y-92000000D01*
X148750000Y-86000000D02*
X144950000Y-86000000D01*
X143150000Y-87800000D02*
X137350000Y-87800000D01*
X137350000Y-87800000D02*
X137350000Y-92000000D01*
X143150000Y-87800000D02*
G75*
G03*
X144950000Y-86000000I-1J1800001D01*
G01*
X146950000Y-92000000D02*
G75*
G03*
X148750000Y-90200000I-1J1800001D01*
G01*
X135950000Y-8200000D02*
X139750000Y-8200000D01*
X135950000Y-4000000D02*
X135950000Y-8200000D01*
X141550000Y-6400000D02*
X147350000Y-6400000D01*
X147350000Y-6400000D02*
X147350000Y-2200000D01*
X147350000Y-2200000D02*
X137750000Y-2200000D01*
X141550000Y-6400000D02*
G75*
G03*
X139750000Y-8200000I1J-1800001D01*
G01*
X137750000Y-2200000D02*
G75*
G03*
X135950000Y-4000000I1J-1800001D01*
G01*
D11*
X228281250Y-12043750D02*
X228281250Y-8143750D01*
X226281250Y-12043750D02*
X226281250Y-8143750D01*
X228281250Y-12043750D02*
X226281250Y-12043750D01*
X27790000Y-29341422D02*
X27790000Y-29858578D01*
X29210000Y-29341422D02*
X29210000Y-29858578D01*
X41218578Y-41180000D02*
X40701422Y-41180000D01*
X41218578Y-39760000D02*
X40701422Y-39760000D01*
X24140000Y-43608578D02*
X24140000Y-43091422D01*
X25560000Y-43608578D02*
X25560000Y-43091422D01*
X88693750Y-50143750D02*
X88693750Y-46243750D01*
X90693750Y-50143750D02*
X88693750Y-50143750D01*
X90693750Y-50143750D02*
X90693750Y-46243750D01*
X192562500Y-88243750D02*
X192562500Y-84343750D01*
X192562500Y-88243750D02*
X190562500Y-88243750D01*
X190562500Y-88243750D02*
X190562500Y-84343750D01*
X21791422Y-39840000D02*
X22308578Y-39840000D01*
X21791422Y-41260000D02*
X22308578Y-41260000D01*
D10*
X299750000Y-6400000D02*
X299750000Y-2200000D01*
X288350000Y-8200000D02*
X292150000Y-8200000D01*
X293950000Y-6400000D02*
X299750000Y-6400000D01*
X299750000Y-2200000D02*
X290150000Y-2200000D01*
X288350000Y-4000000D02*
X288350000Y-8200000D01*
X293950000Y-6400000D02*
G75*
G03*
X292150000Y-8200000I1J-1800001D01*
G01*
X290150000Y-2200000D02*
G75*
G03*
X288350000Y-4000000I1J-1800001D01*
G01*
X270700000Y-15800000D02*
X280300000Y-15800000D01*
X276500000Y-11600000D02*
X270700000Y-11600000D01*
X282100000Y-14000000D02*
X282100000Y-9800000D01*
X270700000Y-11600000D02*
X270700000Y-15800000D01*
X282100000Y-9800000D02*
X278300000Y-9800000D01*
X280300000Y-15800000D02*
G75*
G03*
X282100000Y-14000000I-1J1800001D01*
G01*
X276500000Y-11600000D02*
G75*
G03*
X278300000Y-9800000I-1J1800001D01*
G01*
X6381250Y-87800000D02*
X6381250Y-92000000D01*
X17781250Y-86000000D02*
X13981250Y-86000000D01*
X12181250Y-87800000D02*
X6381250Y-87800000D01*
X6381250Y-92000000D02*
X15981250Y-92000000D01*
X17781250Y-90200000D02*
X17781250Y-86000000D01*
X15981250Y-92000000D02*
G75*
G03*
X17781250Y-90200000I-1J1800001D01*
G01*
X12181250Y-87800000D02*
G75*
G03*
X13981250Y-86000000I-1J1800001D01*
G01*
X35993750Y-87800000D02*
X30193750Y-87800000D01*
X41593750Y-90200000D02*
X41593750Y-86000000D01*
X30193750Y-87800000D02*
X30193750Y-92000000D01*
X30193750Y-92000000D02*
X39793750Y-92000000D01*
X41593750Y-86000000D02*
X37793750Y-86000000D01*
X35993750Y-87800000D02*
G75*
G03*
X37793750Y-86000000I-1J1800001D01*
G01*
X39793750Y-92000000D02*
G75*
G03*
X41593750Y-90200000I-1J1800001D01*
G01*
X65406250Y-90200000D02*
X65406250Y-86000000D01*
X65406250Y-86000000D02*
X61606250Y-86000000D01*
X54006250Y-92000000D02*
X63606250Y-92000000D01*
X59806250Y-87800000D02*
X54006250Y-87800000D01*
X54006250Y-87800000D02*
X54006250Y-92000000D01*
X59806250Y-87800000D02*
G75*
G03*
X61606250Y-86000000I-1J1800001D01*
G01*
X63606250Y-92000000D02*
G75*
G03*
X65406250Y-90200000I-1J1800001D01*
G01*
X129643750Y-82600000D02*
X135443750Y-82600000D01*
X135443750Y-78400000D02*
X125843750Y-78400000D01*
X124043750Y-80200000D02*
X124043750Y-84400000D01*
X124043750Y-84400000D02*
X127843750Y-84400000D01*
X135443750Y-82600000D02*
X135443750Y-78400000D01*
X129643750Y-82600000D02*
G75*
G03*
X127843750Y-84400000I1J-1800001D01*
G01*
X125843750Y-78400000D02*
G75*
G03*
X124043750Y-80200000I1J-1800001D01*
G01*
D11*
X36613750Y-18403750D02*
X36613750Y-16603750D01*
X39833750Y-16603750D02*
X39833750Y-19053750D01*
%LPC*%
D12*
X23310000Y-17120000D03*
X26110000Y-17120000D03*
D13*
X64050000Y-16003750D03*
X64050000Y-17003750D03*
X64050000Y-18003750D03*
X64050000Y-19003750D03*
D14*
X67925000Y-20303750D03*
X67925000Y-14703750D03*
D15*
X2535000Y-22155000D03*
X5075000Y-22155000D03*
X2535000Y-19615000D03*
X5075000Y-19615000D03*
X2535000Y-17075000D03*
D16*
X5075000Y-17075000D03*
D17*
X31402500Y-18753750D03*
X33277500Y-18753750D03*
X31402500Y-16253750D03*
X33277500Y-16253750D03*
D18*
X58393750Y-37385000D03*
X52093750Y-37385000D03*
X58393750Y-33585000D03*
X52093750Y-33585000D03*
D19*
X41897500Y-34870000D03*
X40022500Y-34870000D03*
X24061250Y-28750000D03*
X22186250Y-28750000D03*
D20*
X31700000Y-44937500D03*
X31700000Y-43062500D03*
D21*
X26053750Y-34421250D03*
X26553750Y-34421250D03*
X27053750Y-34421250D03*
X27553750Y-34421250D03*
X28053750Y-34421250D03*
X28553750Y-34421250D03*
X29053750Y-34421250D03*
X29553750Y-34421250D03*
X30053750Y-34421250D03*
X30553750Y-34421250D03*
X31053750Y-34421250D03*
D22*
X31891250Y-35258750D03*
X31891250Y-35758750D03*
X31891250Y-36258750D03*
X31891250Y-36758750D03*
X31891250Y-37258750D03*
X31891250Y-37758750D03*
X31891250Y-38258750D03*
X31891250Y-38758750D03*
X31891250Y-39258750D03*
X31891250Y-39758750D03*
X31891250Y-40258750D03*
D21*
X31053750Y-41096250D03*
X30553750Y-41096250D03*
X30053750Y-41096250D03*
X29553750Y-41096250D03*
X29053750Y-41096250D03*
X28553750Y-41096250D03*
X28053750Y-41096250D03*
X27553750Y-41096250D03*
X27053750Y-41096250D03*
X26553750Y-41096250D03*
X26053750Y-41096250D03*
D22*
X25216250Y-40258750D03*
X25216250Y-39758750D03*
X25216250Y-39258750D03*
X25216250Y-38758750D03*
X25216250Y-38258750D03*
X25216250Y-37758750D03*
X25216250Y-37258750D03*
X25216250Y-36758750D03*
X25216250Y-36258750D03*
X25216250Y-35758750D03*
X25216250Y-35258750D03*
D23*
X28553750Y-37758750D03*
D24*
X42060000Y-38520000D03*
X39860000Y-38520000D03*
X39860000Y-36820000D03*
X42060000Y-36820000D03*
D25*
X35150000Y-33312500D03*
X35150000Y-35187500D03*
X49710000Y-33582500D03*
X49710000Y-35457500D03*
D26*
X2381250Y-14350000D03*
X2381250Y-11050000D03*
X17462500Y-11450000D03*
X17462500Y-8150000D03*
X36512500Y-11443750D03*
X36512500Y-8143750D03*
X55562500Y-11443750D03*
X55562500Y-8143750D03*
X74612500Y-11443750D03*
X74612500Y-8143750D03*
X93662500Y-11443750D03*
X93662500Y-8143750D03*
X112712500Y-11443750D03*
X112712500Y-8143750D03*
X132031250Y-11443750D03*
X132031250Y-8143750D03*
X151081250Y-11443750D03*
X151081250Y-8143750D03*
X170131250Y-11443750D03*
X170131250Y-8143750D03*
X189181250Y-11443750D03*
X189181250Y-8143750D03*
X208231250Y-11443750D03*
X208231250Y-8143750D03*
X247125000Y-11443750D03*
X247125000Y-8143750D03*
X284797500Y-17525000D03*
X284797500Y-14225000D03*
X287972500Y-17048750D03*
X287972500Y-13748750D03*
X5556250Y-31812500D03*
X5556250Y-28512500D03*
X67750000Y-31900000D03*
X67750000Y-28600000D03*
X64562500Y-30493750D03*
X64562500Y-27193750D03*
X83612500Y-30493750D03*
X83612500Y-27193750D03*
X86750000Y-31650000D03*
X86750000Y-28350000D03*
X103981250Y-30493750D03*
X103981250Y-27193750D03*
X123031250Y-30493750D03*
X123031250Y-27193750D03*
X142081250Y-30493750D03*
X142081250Y-27193750D03*
X161131250Y-30493750D03*
X161131250Y-27193750D03*
X180181250Y-30493750D03*
X180181250Y-27193750D03*
X199231250Y-30493750D03*
X199231250Y-27193750D03*
X218281250Y-30493750D03*
X218281250Y-27193750D03*
X237331250Y-30493750D03*
X237331250Y-27193750D03*
X261143750Y-30493750D03*
X261143750Y-27193750D03*
X284956250Y-30493750D03*
X284956250Y-27193750D03*
X26193750Y-52450000D03*
X26193750Y-49150000D03*
X50275000Y-49543750D03*
X50275000Y-46243750D03*
X53450000Y-50900000D03*
X53450000Y-47600000D03*
X70643750Y-49543750D03*
X70643750Y-46243750D03*
X108743750Y-49543750D03*
X108743750Y-46243750D03*
X127793750Y-49543750D03*
X127793750Y-46243750D03*
X146843750Y-49543750D03*
X146843750Y-46243750D03*
X165893750Y-49543750D03*
X165893750Y-46243750D03*
X184943750Y-49543750D03*
X184943750Y-46243750D03*
X203993750Y-49543750D03*
X203993750Y-46243750D03*
X223043750Y-49543750D03*
X223043750Y-46243750D03*
X254000000Y-49543750D03*
X254000000Y-46243750D03*
X284956250Y-49543750D03*
X284956250Y-46243750D03*
X28843750Y-68593750D03*
X28843750Y-65293750D03*
X42068750Y-68593750D03*
X42068750Y-65293750D03*
X61118750Y-68593750D03*
X61118750Y-65293750D03*
X80168750Y-68593750D03*
X80168750Y-65293750D03*
X99218750Y-68593750D03*
X99218750Y-65293750D03*
X118268750Y-68593750D03*
X118268750Y-65293750D03*
X137318750Y-68593750D03*
X137318750Y-65293750D03*
X156368750Y-68593750D03*
X156368750Y-65293750D03*
X175418750Y-68593750D03*
X175418750Y-65293750D03*
X194468750Y-68593750D03*
X194468750Y-65293750D03*
X213518750Y-68593750D03*
X213518750Y-65293750D03*
X239712500Y-68593750D03*
X239712500Y-65293750D03*
X265906250Y-68593750D03*
X265906250Y-65293750D03*
X284956250Y-68593750D03*
X284956250Y-65293750D03*
X22225000Y-85787500D03*
X22225000Y-82487500D03*
X26193750Y-85787500D03*
X26193750Y-82487500D03*
X50800000Y-85787500D03*
X50800000Y-82487500D03*
X119062500Y-88168750D03*
X119062500Y-84868750D03*
X212566250Y-87692500D03*
X212566250Y-84392500D03*
X260191250Y-91661250D03*
X260191250Y-88361250D03*
X272097500Y-91661250D03*
X272097500Y-88361250D03*
X284003750Y-91661250D03*
X284003750Y-88361250D03*
D27*
X14080000Y-9000000D03*
X3920000Y-9000000D03*
D28*
X9000000Y-9000000D03*
D29*
X5190000Y-6460000D03*
D30*
X1915000Y-6460000D03*
D29*
X11540000Y-3920000D03*
D31*
X14841000Y-3920000D03*
D27*
X33130000Y-9000000D03*
D28*
X28050000Y-9000000D03*
D27*
X22970000Y-9000000D03*
D29*
X24240000Y-6460000D03*
D30*
X20965000Y-6460000D03*
D31*
X33891000Y-3920000D03*
D29*
X30590000Y-3920000D03*
D27*
X52180000Y-9000000D03*
D28*
X47100000Y-9000000D03*
D27*
X42020000Y-9000000D03*
D29*
X43290000Y-6460000D03*
D30*
X40015000Y-6460000D03*
D29*
X49640000Y-3920000D03*
D31*
X52941000Y-3920000D03*
D27*
X71230000Y-9000000D03*
X61070000Y-9000000D03*
D28*
X66150000Y-9000000D03*
D29*
X62340000Y-6460000D03*
D30*
X59065000Y-6460000D03*
D29*
X68690000Y-3920000D03*
D31*
X71991000Y-3920000D03*
D27*
X80120000Y-9000000D03*
D28*
X85200000Y-9000000D03*
D27*
X90280000Y-9000000D03*
D30*
X78115000Y-6460000D03*
D29*
X81390000Y-6460000D03*
D31*
X91041000Y-3920000D03*
D29*
X87740000Y-3920000D03*
D27*
X109330000Y-9000000D03*
D28*
X104250000Y-9000000D03*
D27*
X99170000Y-9000000D03*
D30*
X97165000Y-6460000D03*
D29*
X100440000Y-6460000D03*
X106790000Y-3920000D03*
D31*
X110091000Y-3920000D03*
D27*
X118220000Y-9000000D03*
X128380000Y-9000000D03*
D28*
X123300000Y-9000000D03*
D29*
X119490000Y-6460000D03*
D30*
X116215000Y-6460000D03*
D29*
X125840000Y-3920000D03*
D31*
X129141000Y-3920000D03*
D28*
X161400000Y-9000000D03*
D27*
X166480000Y-9000000D03*
X156320000Y-9000000D03*
D30*
X154315000Y-6460000D03*
D29*
X157590000Y-6460000D03*
D31*
X167241000Y-3920000D03*
D29*
X163940000Y-3920000D03*
D27*
X185530000Y-9000000D03*
D28*
X180450000Y-9000000D03*
D27*
X175370000Y-9000000D03*
D29*
X176640000Y-6460000D03*
D30*
X173365000Y-6460000D03*
D29*
X182990000Y-3920000D03*
D31*
X186291000Y-3920000D03*
D27*
X194420000Y-9000000D03*
D28*
X199500000Y-9000000D03*
D27*
X204580000Y-9000000D03*
D30*
X192415000Y-6460000D03*
D29*
X195690000Y-6460000D03*
X202040000Y-3920000D03*
D31*
X205341000Y-3920000D03*
D27*
X223630000Y-9000000D03*
D28*
X218550000Y-9000000D03*
D27*
X213470000Y-9000000D03*
D30*
X211465000Y-6460000D03*
D29*
X214740000Y-6460000D03*
D31*
X224391000Y-3920000D03*
D29*
X221090000Y-3920000D03*
D27*
X242680000Y-9000000D03*
X232520000Y-9000000D03*
D28*
X237600000Y-9000000D03*
D30*
X230515000Y-6460000D03*
D29*
X233790000Y-6460000D03*
X240140000Y-3920000D03*
D31*
X243441000Y-3920000D03*
D28*
X256650000Y-9000000D03*
D27*
X251570000Y-9000000D03*
X261730000Y-9000000D03*
D29*
X260460000Y-11540000D03*
D32*
X263735000Y-11540000D03*
D33*
X250809000Y-14080000D03*
D29*
X254110000Y-14080000D03*
D27*
X271255000Y-9000000D03*
D34*
X254237000Y-2015000D03*
D27*
X261095000Y-9000000D03*
D28*
X266175000Y-9000000D03*
X254237000Y-17255000D03*
X278113000Y-17255000D03*
D34*
X278113000Y-2015000D03*
D29*
X262365000Y-6460000D03*
D30*
X259090000Y-6460000D03*
D29*
X268715000Y-3920000D03*
D31*
X272016000Y-3920000D03*
D27*
X8682500Y-28050000D03*
D28*
X13762500Y-28050000D03*
D27*
X18842500Y-28050000D03*
D29*
X9952500Y-25510000D03*
D30*
X6677500Y-25510000D03*
D31*
X19603500Y-22970000D03*
D29*
X16302500Y-22970000D03*
D28*
X37575000Y-28050000D03*
D27*
X42655000Y-28050000D03*
X32495000Y-28050000D03*
D29*
X33765000Y-25510000D03*
D30*
X30490000Y-25510000D03*
D29*
X40115000Y-22970000D03*
D31*
X43416000Y-22970000D03*
D28*
X56625000Y-28050000D03*
D27*
X51545000Y-28050000D03*
X61705000Y-28050000D03*
D30*
X49540000Y-25510000D03*
D29*
X52815000Y-25510000D03*
D31*
X62466000Y-22970000D03*
D29*
X59165000Y-22970000D03*
D28*
X75675000Y-28050000D03*
D27*
X70595000Y-28050000D03*
X80755000Y-28050000D03*
D30*
X68590000Y-25510000D03*
D29*
X71865000Y-25510000D03*
X78215000Y-22970000D03*
D31*
X81516000Y-22970000D03*
D28*
X94725000Y-28050000D03*
D27*
X99805000Y-28050000D03*
X89645000Y-28050000D03*
D29*
X90915000Y-25510000D03*
D30*
X87640000Y-25510000D03*
D31*
X100566000Y-22970000D03*
D29*
X97265000Y-22970000D03*
D27*
X118855000Y-28050000D03*
D28*
X113775000Y-28050000D03*
D27*
X108695000Y-28050000D03*
D29*
X109965000Y-25510000D03*
D30*
X106690000Y-25510000D03*
D31*
X119616000Y-22970000D03*
D29*
X116315000Y-22970000D03*
D28*
X132825000Y-28050000D03*
D27*
X127745000Y-28050000D03*
X137905000Y-28050000D03*
D29*
X129015000Y-25510000D03*
D30*
X125740000Y-25510000D03*
D29*
X135365000Y-22970000D03*
D31*
X138666000Y-22970000D03*
D28*
X151875000Y-28050000D03*
D27*
X146795000Y-28050000D03*
X156955000Y-28050000D03*
D30*
X144790000Y-25510000D03*
D29*
X148065000Y-25510000D03*
X154415000Y-22970000D03*
D31*
X157716000Y-22970000D03*
D27*
X176005000Y-28050000D03*
X165845000Y-28050000D03*
D28*
X170925000Y-28050000D03*
D29*
X167115000Y-25510000D03*
D30*
X163840000Y-25510000D03*
D31*
X176766000Y-22970000D03*
D29*
X173465000Y-22970000D03*
D27*
X184895000Y-28050000D03*
D28*
X189975000Y-28050000D03*
D27*
X195055000Y-28050000D03*
D30*
X182890000Y-25510000D03*
D29*
X186165000Y-25510000D03*
X192515000Y-22970000D03*
D31*
X195816000Y-22970000D03*
D28*
X209025000Y-28050000D03*
D27*
X203945000Y-28050000D03*
X214105000Y-28050000D03*
D30*
X201940000Y-25510000D03*
D29*
X205215000Y-25510000D03*
D31*
X214866000Y-22970000D03*
D29*
X211565000Y-22970000D03*
D28*
X228075000Y-28050000D03*
D27*
X233155000Y-28050000D03*
X222995000Y-28050000D03*
D30*
X220990000Y-25510000D03*
D29*
X224265000Y-25510000D03*
D31*
X233916000Y-22970000D03*
D29*
X230615000Y-22970000D03*
D27*
X242045000Y-28050000D03*
X252205000Y-28050000D03*
D28*
X247125000Y-28050000D03*
D29*
X243315000Y-25510000D03*
D30*
X240040000Y-25510000D03*
D29*
X249665000Y-22970000D03*
D31*
X252966000Y-22970000D03*
D28*
X270937500Y-28050000D03*
D27*
X265857500Y-28050000D03*
X276017500Y-28050000D03*
D29*
X267127500Y-25510000D03*
D30*
X263852500Y-25510000D03*
D31*
X276778500Y-22970000D03*
D29*
X273477500Y-22970000D03*
D27*
X289670000Y-28050000D03*
D28*
X294750000Y-28050000D03*
D27*
X299830000Y-28050000D03*
D30*
X287665000Y-25510000D03*
D29*
X290940000Y-25510000D03*
D31*
X300591000Y-22970000D03*
D29*
X297290000Y-22970000D03*
D28*
X11381250Y-47100000D03*
D27*
X16461250Y-47100000D03*
X6301250Y-47100000D03*
D30*
X4296250Y-44560000D03*
D29*
X7571250Y-44560000D03*
D31*
X17222250Y-42020000D03*
D29*
X13921250Y-42020000D03*
D28*
X16143750Y-47100000D03*
D27*
X11063750Y-47100000D03*
X21223750Y-47100000D03*
D29*
X19953750Y-49640000D03*
D32*
X23228750Y-49640000D03*
D29*
X13603750Y-52180000D03*
D33*
X10302750Y-52180000D03*
D28*
X42337500Y-47100000D03*
D27*
X47417500Y-47100000D03*
X37257500Y-47100000D03*
D30*
X35252500Y-44560000D03*
D29*
X38527500Y-44560000D03*
D31*
X48178500Y-42020000D03*
D29*
X44877500Y-42020000D03*
D27*
X66467500Y-47100000D03*
D28*
X61387500Y-47100000D03*
D27*
X56307500Y-47100000D03*
D29*
X57577500Y-44560000D03*
D30*
X54302500Y-44560000D03*
D31*
X67228500Y-42020000D03*
D29*
X63927500Y-42020000D03*
D27*
X75357500Y-47100000D03*
D28*
X80437500Y-47100000D03*
D27*
X85517500Y-47100000D03*
D30*
X73352500Y-44560000D03*
D29*
X76627500Y-44560000D03*
X82977500Y-42020000D03*
D31*
X86278500Y-42020000D03*
D28*
X99487500Y-47100000D03*
D27*
X104567500Y-47100000D03*
X94407500Y-47100000D03*
D29*
X95677500Y-44560000D03*
D30*
X92402500Y-44560000D03*
D31*
X105328500Y-42020000D03*
D29*
X102027500Y-42020000D03*
D27*
X123617500Y-47100000D03*
D28*
X118537500Y-47100000D03*
D27*
X113457500Y-47100000D03*
D29*
X114727500Y-44560000D03*
D30*
X111452500Y-44560000D03*
D29*
X121077500Y-42020000D03*
D31*
X124378500Y-42020000D03*
D28*
X137587500Y-47100000D03*
D27*
X132507500Y-47100000D03*
X142667500Y-47100000D03*
D30*
X130502500Y-44560000D03*
D29*
X133777500Y-44560000D03*
D31*
X143428500Y-42020000D03*
D29*
X140127500Y-42020000D03*
D27*
X151557500Y-47100000D03*
X161717500Y-47100000D03*
D28*
X156637500Y-47100000D03*
D29*
X152827500Y-44560000D03*
D30*
X149552500Y-44560000D03*
D31*
X162478500Y-42020000D03*
D29*
X159177500Y-42020000D03*
D27*
X180767500Y-47100000D03*
D28*
X175687500Y-47100000D03*
D27*
X170607500Y-47100000D03*
D29*
X171877500Y-44560000D03*
D30*
X168602500Y-44560000D03*
D31*
X181528500Y-42020000D03*
D29*
X178227500Y-42020000D03*
D27*
X189657500Y-47100000D03*
X199817500Y-47100000D03*
D28*
X194737500Y-47100000D03*
D30*
X187652500Y-44560000D03*
D29*
X190927500Y-44560000D03*
X197277500Y-42020000D03*
D31*
X200578500Y-42020000D03*
D27*
X218867500Y-47100000D03*
X208707500Y-47100000D03*
D28*
X213787500Y-47100000D03*
D29*
X209977500Y-44560000D03*
D30*
X206702500Y-44560000D03*
D31*
X219628500Y-42020000D03*
D29*
X216327500Y-42020000D03*
D28*
X232837500Y-47100000D03*
D27*
X237917500Y-47100000D03*
X227757500Y-47100000D03*
D29*
X229027500Y-44560000D03*
D30*
X225752500Y-44560000D03*
D29*
X235377500Y-42020000D03*
D31*
X238678500Y-42020000D03*
D34*
X275731750Y-40115000D03*
D27*
X268873750Y-47100000D03*
D34*
X251855750Y-40115000D03*
D28*
X275731750Y-55355000D03*
X263793750Y-47100000D03*
D27*
X258713750Y-47100000D03*
D28*
X251855750Y-55355000D03*
D30*
X256708750Y-44560000D03*
D29*
X259983750Y-44560000D03*
D31*
X269634750Y-42020000D03*
D29*
X266333750Y-42020000D03*
D28*
X294750000Y-47100000D03*
D27*
X289670000Y-47100000D03*
X299830000Y-47100000D03*
D29*
X290940000Y-44560000D03*
D30*
X287665000Y-44560000D03*
D31*
X300591000Y-42020000D03*
D29*
X297290000Y-42020000D03*
D34*
X32844250Y-59165000D03*
D28*
X20906250Y-66150000D03*
X32844250Y-74405000D03*
X8968250Y-74405000D03*
D27*
X15826250Y-66150000D03*
D34*
X8968250Y-59165000D03*
D27*
X25986250Y-66150000D03*
D30*
X13821250Y-63610000D03*
D29*
X17096250Y-63610000D03*
D31*
X26747250Y-61070000D03*
D29*
X23446250Y-61070000D03*
D28*
X51862500Y-66150000D03*
D27*
X46782500Y-66150000D03*
X56942500Y-66150000D03*
D30*
X44777500Y-63610000D03*
D29*
X48052500Y-63610000D03*
X54402500Y-61070000D03*
D31*
X57703500Y-61070000D03*
D27*
X75992500Y-66150000D03*
D28*
X70912500Y-66150000D03*
D27*
X65832500Y-66150000D03*
D29*
X67102500Y-63610000D03*
D30*
X63827500Y-63610000D03*
D31*
X76753500Y-61070000D03*
D29*
X73452500Y-61070000D03*
D27*
X95042500Y-66150000D03*
D28*
X89962500Y-66150000D03*
D27*
X84882500Y-66150000D03*
D29*
X86152500Y-63610000D03*
D30*
X82877500Y-63610000D03*
D31*
X95803500Y-61070000D03*
D29*
X92502500Y-61070000D03*
D27*
X103932500Y-66150000D03*
X114092500Y-66150000D03*
D28*
X109012500Y-66150000D03*
D30*
X101927500Y-63610000D03*
D29*
X105202500Y-63610000D03*
X111552500Y-61070000D03*
D31*
X114853500Y-61070000D03*
D28*
X128062500Y-66150000D03*
D27*
X122982500Y-66150000D03*
X133142500Y-66150000D03*
D30*
X120977500Y-63610000D03*
D29*
X124252500Y-63610000D03*
X130602500Y-61070000D03*
D31*
X133903500Y-61070000D03*
D27*
X152192500Y-66150000D03*
D28*
X147112500Y-66150000D03*
D27*
X142032500Y-66150000D03*
D29*
X143302500Y-63610000D03*
D30*
X140027500Y-63610000D03*
D29*
X149652500Y-61070000D03*
D31*
X152953500Y-61070000D03*
D27*
X171242500Y-66150000D03*
D28*
X166162500Y-66150000D03*
D27*
X161082500Y-66150000D03*
D29*
X162352500Y-63610000D03*
D30*
X159077500Y-63610000D03*
D29*
X168702500Y-61070000D03*
D31*
X172003500Y-61070000D03*
D28*
X185212500Y-66150000D03*
D27*
X180132500Y-66150000D03*
X190292500Y-66150000D03*
D29*
X181402500Y-63610000D03*
D30*
X178127500Y-63610000D03*
D31*
X191053500Y-61070000D03*
D29*
X187752500Y-61070000D03*
D27*
X199182500Y-66150000D03*
D28*
X204262500Y-66150000D03*
D27*
X209342500Y-66150000D03*
D29*
X200452500Y-63610000D03*
D30*
X197177500Y-63610000D03*
D31*
X210103500Y-61070000D03*
D29*
X206802500Y-61070000D03*
D27*
X218232500Y-66150000D03*
D28*
X223312500Y-66150000D03*
D27*
X228392500Y-66150000D03*
D30*
X216227500Y-63610000D03*
D29*
X219502500Y-63610000D03*
X225852500Y-61070000D03*
D31*
X229153500Y-61070000D03*
D27*
X254586250Y-66150000D03*
X244426250Y-66150000D03*
D28*
X249506250Y-66150000D03*
D30*
X242421250Y-63610000D03*
D29*
X245696250Y-63610000D03*
X252046250Y-61070000D03*
D31*
X255347250Y-61070000D03*
D28*
X275700000Y-66150000D03*
D27*
X280780000Y-66150000D03*
X270620000Y-66150000D03*
D29*
X271890000Y-63610000D03*
D30*
X268615000Y-63610000D03*
D31*
X281541000Y-61070000D03*
D29*
X278240000Y-61070000D03*
D27*
X289670000Y-66150000D03*
X299830000Y-66150000D03*
D28*
X294750000Y-66150000D03*
D29*
X290940000Y-63610000D03*
D30*
X287665000Y-63610000D03*
D29*
X297290000Y-61070000D03*
D31*
X300591000Y-61070000D03*
D27*
X18842500Y-85200000D03*
X8682500Y-85200000D03*
D28*
X13762500Y-85200000D03*
D30*
X6677500Y-82660000D03*
D29*
X9952500Y-82660000D03*
D31*
X19603500Y-80120000D03*
D29*
X16302500Y-80120000D03*
D27*
X32495000Y-85200000D03*
D28*
X37575000Y-85200000D03*
D27*
X42655000Y-85200000D03*
D30*
X30490000Y-82660000D03*
D29*
X33765000Y-82660000D03*
X40115000Y-80120000D03*
D31*
X43416000Y-80120000D03*
D27*
X66467500Y-85200000D03*
D28*
X61387500Y-85200000D03*
D27*
X56307500Y-85200000D03*
D29*
X57577500Y-82660000D03*
D30*
X54302500Y-82660000D03*
D29*
X63927500Y-80120000D03*
D31*
X67228500Y-80120000D03*
D27*
X196801250Y-85200000D03*
X206961250Y-85200000D03*
D28*
X201881250Y-85200000D03*
D29*
X198071250Y-82660000D03*
D30*
X194796250Y-82660000D03*
D31*
X207722250Y-80120000D03*
D29*
X204421250Y-80120000D03*
D27*
X218232500Y-85200000D03*
X228392500Y-85200000D03*
D28*
X223312500Y-85200000D03*
D30*
X216227500Y-82660000D03*
D29*
X219502500Y-82660000D03*
D31*
X229153500Y-80120000D03*
D29*
X225852500Y-80120000D03*
D28*
X256650000Y-85200000D03*
D27*
X261730000Y-85200000D03*
X251570000Y-85200000D03*
D30*
X249565000Y-82660000D03*
D29*
X252840000Y-82660000D03*
D31*
X262491000Y-80120000D03*
D29*
X259190000Y-80120000D03*
D27*
X280780000Y-85200000D03*
D28*
X275700000Y-85200000D03*
D27*
X270620000Y-85200000D03*
D30*
X268615000Y-82660000D03*
D29*
X271890000Y-82660000D03*
X278240000Y-80120000D03*
D31*
X281541000Y-80120000D03*
D27*
X299830000Y-85200000D03*
D28*
X294750000Y-85200000D03*
D27*
X289670000Y-85200000D03*
D30*
X287665000Y-82660000D03*
D29*
X290940000Y-82660000D03*
X297290000Y-80120000D03*
D31*
X300591000Y-80120000D03*
D27*
X220613750Y-85200000D03*
X230773750Y-85200000D03*
D28*
X225693750Y-85200000D03*
D32*
X232778750Y-87740000D03*
D29*
X229503750Y-87740000D03*
X223153750Y-90280000D03*
D33*
X219852750Y-90280000D03*
D27*
X137270000Y-85200000D03*
D34*
X199500000Y-92185000D03*
D28*
X142350000Y-85200000D03*
X85200000Y-76945000D03*
D34*
X85200000Y-92185000D03*
D28*
X199500000Y-76945000D03*
D27*
X147430000Y-85200000D03*
D29*
X146160000Y-87740000D03*
D32*
X149435000Y-87740000D03*
D29*
X139810000Y-90280000D03*
D33*
X136509000Y-90280000D03*
D28*
X142350000Y-9000000D03*
D27*
X137270000Y-9000000D03*
X147430000Y-9000000D03*
D29*
X138540000Y-6460000D03*
D30*
X135265000Y-6460000D03*
D29*
X144890000Y-3920000D03*
D31*
X148191000Y-3920000D03*
D26*
X227281250Y-11443750D03*
X227281250Y-8143750D03*
D25*
X28500000Y-28662500D03*
X28500000Y-30537500D03*
D19*
X41897500Y-40470000D03*
X40022500Y-40470000D03*
D20*
X24850000Y-44287500D03*
X24850000Y-42412500D03*
D26*
X89693750Y-49543750D03*
X89693750Y-46243750D03*
X191562500Y-87643750D03*
X191562500Y-84343750D03*
D17*
X21112500Y-40550000D03*
X22987500Y-40550000D03*
D27*
X289670000Y-9000000D03*
D28*
X294750000Y-9000000D03*
D27*
X299830000Y-9000000D03*
D29*
X290940000Y-6460000D03*
D30*
X287665000Y-6460000D03*
D31*
X300591000Y-3920000D03*
D29*
X297290000Y-3920000D03*
D27*
X270620000Y-9000000D03*
D28*
X275700000Y-9000000D03*
D27*
X280780000Y-9000000D03*
D29*
X279510000Y-11540000D03*
D32*
X282785000Y-11540000D03*
D29*
X273160000Y-14080000D03*
D33*
X269859000Y-14080000D03*
D28*
X11381250Y-85200000D03*
D27*
X6301250Y-85200000D03*
X16461250Y-85200000D03*
D32*
X18466250Y-87740000D03*
D29*
X15191250Y-87740000D03*
X8841250Y-90280000D03*
D33*
X5540250Y-90280000D03*
D27*
X30113750Y-85200000D03*
D28*
X35193750Y-85200000D03*
D27*
X40273750Y-85200000D03*
D32*
X42278750Y-87740000D03*
D29*
X39003750Y-87740000D03*
D33*
X29352750Y-90280000D03*
D29*
X32653750Y-90280000D03*
D28*
X59006250Y-85200000D03*
D27*
X64086250Y-85200000D03*
X53926250Y-85200000D03*
D29*
X62816250Y-87740000D03*
D32*
X66091250Y-87740000D03*
D29*
X56466250Y-90280000D03*
D33*
X53165250Y-90280000D03*
D34*
X80443850Y-78215000D03*
D28*
X130443750Y-85200000D03*
X180443650Y-93455000D03*
X80443850Y-93455000D03*
D27*
X135523750Y-85200000D03*
X125363750Y-85200000D03*
D34*
X180443650Y-78215000D03*
D30*
X123358750Y-82660000D03*
D29*
X126633750Y-82660000D03*
D31*
X136284750Y-80120000D03*
D29*
X132983750Y-80120000D03*
D35*
X39173750Y-18603750D03*
X38223750Y-18603750D03*
X37273750Y-18603750D03*
X37273750Y-16403750D03*
X38223750Y-16403750D03*
X39173750Y-16403750D03*
M02*
